<svg width="18" height="16" viewBox="0 0 18 16" fill="none" xmlns="http://www.w3.org/2000/svg">
<path fill-rule="evenodd" clip-rule="evenodd" d="M15.5113 0.5H2.43268C1.52535 0.5 0.806026 1.33437 0.806026 2.375L0.797852 13.625C0.797852 14.6656 1.52535 15.5 2.43268 15.5H15.5113C16.4187 15.5 17.1462 14.6656 17.1462 13.625V2.375C17.1462 1.33437 16.4187 0.5 15.5113 0.5ZM8.15485 12.6875H9.78968V11.75H10.6071C11.0567 11.75 11.4245 11.3281 11.4245 10.8125V8C11.4245 7.48438 11.0567 7.0625 10.6071 7.0625H8.15485V6.125H11.4245V4.25H9.78968V3.3125H8.15485V4.25H7.33744C6.88786 4.25 6.52002 4.67188 6.52002 5.1875V8C6.52002 8.51562 6.88786 8.9375 7.33744 8.9375H9.78968V9.875H6.52002V11.75H8.15485V12.6875ZM2.43311 13.625H15.5118V2.375H2.43311V13.625Z" fill="#606060"/>
</svg>
