<svg width="60" height="18" viewBox="0 0 60 18" fill="none" xmlns="http://www.w3.org/2000/svg">
<path d="M57.7482 6.90527C57.7378 6.90527 57.7292 6.91383 57.7292 6.92446V7.09345C57.7292 7.10385 57.7378 7.11239 57.7482 7.11239C57.7482 7.11239 58.0295 7.11239 58.0635 7.11239C58.0635 7.14916 58.0635 8.191 58.0635 8.191C58.0635 8.20163 58.0721 8.21018 58.0827 8.21018H58.26C58.2705 8.21018 58.2792 8.20163 58.2792 8.191C58.2792 8.191 58.2792 7.14916 58.2792 7.11239C58.313 7.11239 58.5945 7.11239 58.5945 7.11239C58.6049 7.11239 58.6133 7.10385 58.6133 7.09345V6.92446C58.6133 6.91383 58.6049 6.90527 58.5945 6.90527H57.7482Z" fill="#131108"/>
<path d="M59.7664 6.90527C59.7588 6.90527 59.7519 6.9099 59.7489 6.91684C59.7489 6.91684 59.4266 7.66938 59.395 7.74394C59.3631 7.66938 59.041 6.91684 59.041 6.91684C59.0381 6.9099 59.0309 6.90527 59.0233 6.90527H58.809C58.7983 6.90527 58.7898 6.91383 58.7898 6.92446V8.191C58.7898 8.20163 58.7983 8.21018 58.809 8.21018H58.983C58.9878 8.21018 58.9926 8.20822 58.9965 8.20441C59 8.20082 59.0018 8.19619 59.0018 8.191C59.0018 8.19076 58.9958 7.45475 58.9943 7.30057C59.0541 7.43891 59.31 8.02976 59.31 8.02976C59.313 8.0367 59.32 8.04109 59.3275 8.04109H59.4626C59.4701 8.04109 59.477 8.0367 59.48 8.02976C59.48 8.02976 59.7356 7.43891 59.7955 7.30057C59.794 7.45475 59.7881 8.19076 59.7881 8.191C59.7881 8.19619 59.79 8.20082 59.7934 8.20441C59.797 8.20822 59.8019 8.21018 59.807 8.21018H59.9809C59.9914 8.21018 60 8.20163 60 8.191V6.92446C60 6.91383 59.9914 6.90527 59.9809 6.90527H59.7664Z" fill="#131108"/>
<path d="M55.6283 6.90519C55.5141 6.90519 55.4144 7.00506 55.4144 7.11913V9.14503H52.8605V7.11913C52.8605 7.00506 52.7604 6.90519 52.6462 6.90519H51.9473C51.8332 6.90519 51.7476 7.00506 51.7476 7.11913V12.3263C51.7476 12.4401 51.8332 12.5406 51.9473 12.5406H52.6462C52.7604 12.5406 52.8605 12.4401 52.8605 12.3263V10.1578H55.4144V12.3263C55.4144 12.4401 55.5141 12.5406 55.6283 12.5406H56.3274C56.4271 12.5406 56.5271 12.4401 56.5271 12.3263V7.11913C56.5271 7.00506 56.4271 6.90519 56.3274 6.90519H55.6283ZM50.2069 4.57959C50.3353 4.57959 50.4353 4.67934 50.4353 4.79353V5.4357C50.4353 5.54978 50.3353 5.64952 50.2069 5.64952H45.8555C45.7414 5.64952 45.6417 5.54978 45.6417 5.4357V4.79353C45.6417 4.67934 45.7414 4.57959 45.8555 4.57959H50.2069ZM22.0108 4.57959C21.8967 4.57959 21.7969 4.67934 21.7969 4.79353V10.1578C21.7969 11.5988 22.2537 12.5546 24.0512 12.5546H24.265C26.8328 12.5546 27.2181 10.8569 27.2181 9.9867C27.2181 9.21646 26.9326 7.39017 24.3792 7.39017H22.9527V5.64952H26.2481C26.3622 5.64952 26.4621 5.54978 26.4621 5.4357V4.79353C26.4621 4.67934 26.3622 4.57959 26.2481 4.57959H22.0108ZM24.4218 8.44577C25.4634 8.44577 26.0483 9.01651 26.0483 9.9867C26.0483 10.9568 25.4634 11.4847 24.4218 11.4847H24.0512C23.2664 11.4847 22.9527 11.1567 22.9527 10.2721V8.44577H24.4218ZM40.6073 7.00506C40.5359 7.03337 40.479 7.11913 40.479 7.19021V7.8325C40.479 7.88925 40.5217 7.9608 40.5644 7.98923C40.6215 8.01789 40.6785 8.03234 40.7355 8.01789C41.121 7.88925 41.5629 7.76118 42.2908 7.76118C43.1893 7.76118 43.3465 8.03234 43.3465 8.67393V8.78812L42.1052 8.87366C40.1081 9.01651 40.008 10.3148 40.008 10.7145C40.008 11.8986 40.6358 12.626 42.1337 12.626C42.6047 12.626 43.1324 12.4834 43.589 12.1981L43.6889 12.412C43.7174 12.4834 43.7889 12.5406 43.8746 12.5406H44.2883C44.3878 12.5406 44.4882 12.4549 44.4882 12.3406V8.68837C44.4882 7.3474 43.7746 6.70547 42.2908 6.70547C41.6628 6.70547 41.0494 6.81931 40.6073 7.00506ZM41.1923 10.7145C41.1923 10.3148 41.2634 9.9014 42.0909 9.82974L43.3321 9.71554L43.3465 11.2135C42.947 11.456 42.633 11.5846 42.1478 11.5846C41.6773 11.5846 41.1923 11.3992 41.1923 10.7145ZM31.9777 12.412C32.0065 12.4834 32.0778 12.5406 32.1632 12.5406H32.6625C32.7624 12.5406 32.8621 12.4549 32.8621 12.3406V7.11913C32.8621 7.00506 32.7767 6.90519 32.6484 6.90519H31.9635C31.8351 6.90519 31.7494 7.00506 31.7494 7.11913V10.7856C31.3785 11.1849 30.7082 11.5274 30.2088 11.5274C29.5097 11.5274 29.1671 11.1424 29.1671 10.1578V7.11913C29.1671 7.00506 29.0674 6.90519 28.9533 6.90519H28.2682C28.1543 6.90519 28.0544 7.00506 28.0544 7.11913V10.5149C28.0544 11.7555 28.725 12.626 30.0232 12.626C30.8222 12.626 31.5213 12.1981 31.8634 11.8986L31.9777 12.412ZM49.5647 12.412C49.5935 12.4834 49.6646 12.5406 49.7501 12.5406H50.2495C50.3496 12.5406 50.4494 12.4549 50.4494 12.3406V7.11913C50.4494 7.00506 50.3637 6.90519 50.2355 6.90519H49.5506C49.4222 6.90519 49.3368 7.00506 49.3368 7.11913V10.7856C48.9657 11.1849 48.2951 11.5274 47.796 11.5274C47.0967 11.5274 46.7543 11.1424 46.7543 10.1578V7.11913C46.7543 7.00506 46.6543 6.90519 46.5403 6.90519H45.8555C45.7414 6.90519 45.6417 7.00506 45.6417 7.11913V10.5149C45.6417 11.7555 46.312 12.626 47.6105 12.626C48.4093 12.626 49.1084 12.1981 49.4509 11.8986L49.5647 12.412ZM34.6296 10.5572C34.558 11.3134 34.3583 11.4991 33.7165 11.5702C33.6166 11.5846 33.5169 11.6842 33.5169 11.7984V12.3689C33.5169 12.4834 33.6166 12.5831 33.7165 12.5831C34.9718 12.5831 35.6 11.9837 35.7282 10.5002L35.8565 9.17335C35.9419 8.24616 36.1276 7.9608 36.9692 7.9608H37.8968V12.3263C37.8968 12.4401 37.9967 12.5406 38.1107 12.5406H38.7954C38.8955 12.5406 39.0094 12.4401 39.0094 12.3263V7.11913C39.0094 7.00506 38.8955 6.90519 38.7954 6.90519H36.9123C35.3568 6.90519 34.9005 7.80395 34.7721 9.07349L34.6296 10.5572Z" fill="white"/>
<path d="M17.0152 8.62635C17.0152 13.2595 13.2601 17.0155 8.62691 17.0155C3.99211 17.0155 0.236084 13.2595 0.236084 8.62635C0.236084 3.99247 3.99211 0.236328 8.62691 0.236328C13.2601 0.236328 17.0152 3.99247 17.0152 8.62635Z" fill="#FBBA07"/>
<path d="M2.26807 14.0996C3.80656 15.8848 6.08489 17.0151 8.62697 17.0151C11.1669 17.0151 13.4436 15.8865 14.982 14.1033C14.4497 14.1776 12.7551 14.3534 8.6309 14.3534C4.39152 14.3534 2.75223 14.1707 2.26807 14.0996Z" fill="#131108"/>
<path d="M16.8069 10.4962C16.9443 9.89516 17.0152 9.26893 17.0152 8.62619C17.0152 7.89353 16.9225 7.1835 16.7463 6.50575C15.9149 6.48656 13.3024 6.43408 8.66598 6.43408C3.97998 6.43408 1.32185 6.4869 0.506773 6.50747C0.329821 7.1835 0.236084 7.89375 0.236084 8.62619C0.236084 9.2776 0.31098 9.91122 0.451182 10.5194C1.44702 10.536 5.3666 10.5956 8.73775 10.5956C12.1574 10.5956 15.931 10.5152 16.8069 10.4962Z" fill="#131108"/>
<path d="M14.9109 3.06876C13.3741 1.33181 11.1285 0.236328 8.62698 0.236328C6.12257 0.236328 3.87453 1.33412 2.33765 3.07291C2.90377 2.99652 4.59356 2.82939 8.61207 2.82939C12.6032 2.82939 14.3109 2.99004 14.9109 3.06876Z" fill="#131108"/>
<path d="M17.0129 8.62615C17.0129 13.2582 13.259 17.0129 8.62695 17.0129C3.99343 17.0129 0.23832 13.2582 0.23832 8.62615C0.23832 3.99367 3.99343 0.238331 8.62695 0.238331C13.259 0.238331 17.0129 3.99367 17.0129 8.62615ZM8.62695 0C3.86167 0 0 3.86191 0 8.62615C0 13.3898 3.86167 17.2514 8.62695 17.2514C13.3906 17.2514 17.2514 13.3898 17.2514 8.62615C17.2514 3.86191 13.3906 0 8.62695 0Z" fill="white"/>
</svg>
