<svg width="96" height="100" viewBox="0 0 96 100" fill="none" xmlns="http://www.w3.org/2000/svg">
<path d="M93.8529 44.7001H90.0453V7.94262C90.0453 6.9457 89.2373 6.13748 88.2401 6.13748H57.0348V1.80514C57.0348 0.808222 56.2268 0 55.2296 0H40.4282C39.4313 0 38.623 0.808222 38.623 1.80514V6.13748H7.41793C6.42101 6.13748 5.61279 6.9457 5.61279 7.94262V44.7001H1.80514C0.808222 44.7001 0 45.5083 0 46.5052V98.1949C0 99.1918 0.808222 100 1.80514 100H9.43006H86.228H93.8529C94.8501 100 95.658 99.1918 95.658 98.1949V46.5052C95.658 45.5083 94.8501 44.7001 93.8529 44.7001ZM92.0478 82.4158C90.6462 82.5751 89.3006 82.9183 88.0331 83.4192V48.3104H92.0478V82.4158ZM84.4228 55.2854H58.2935V50.7974L84.4231 50.7967L84.4228 55.2854ZM54.6833 50.9026V67.4668H40.9745V50.9026H54.6833ZM27.2636 47.1864C27.5238 46.6593 27.7453 46.1187 27.9628 45.587C28.4151 44.4813 28.8423 43.4372 29.4813 42.9267C30.1148 42.4211 31.2236 42.2367 32.3975 42.0415C33.5559 41.8487 34.7535 41.6497 35.8771 41.1076C36.9758 40.5772 37.8639 39.7738 38.7227 38.9966C39.6159 38.1886 40.4595 37.4254 41.279 37.2393C42.0429 37.0658 43.1097 37.3775 44.2387 37.7077C45.3261 38.0259 46.5587 38.3864 47.8295 38.3864C49.1003 38.3864 50.3329 38.0259 51.4203 37.7077C52.5493 37.3775 53.6156 37.0658 54.3812 37.2396C55.1995 37.4251 56.0431 38.1886 56.9363 38.9966C57.7948 39.7735 58.683 40.5769 59.7822 41.1076C60.9052 41.6494 62.1031 41.8487 63.2613 42.0413C64.4351 42.2364 65.5437 42.4208 66.1765 42.9258C66.8157 43.4367 67.2429 44.4808 67.695 45.5863C67.9125 46.1182 68.1342 46.659 68.3944 47.1859L27.2636 47.1864ZM37.3643 50.7974V55.2854H11.2352V50.7967L11.7279 50.7974H37.3643ZM11.2352 58.8957H37.3643V69.2717C37.3643 70.2686 38.1725 71.0768 39.1694 71.0768H56.4884C57.4856 71.0768 58.2935 70.2686 58.2935 69.2717V58.8957H84.4228V85.4212C80.9668 87.9792 78.5833 91.9038 78.0733 96.3895H17.5842C17.0742 91.9038 14.691 87.9794 11.2354 85.4214L11.2352 58.8957ZM42.2336 3.61028H53.4247V6.13748H42.2336V3.61028ZM9.22307 9.74776H40.4284H55.2299H86.435V44.7001H86.2282C85.2311 44.7001 84.4231 45.5083 84.4231 46.5052V47.1864H72.8812C72.5845 46.9409 72.3626 46.7228 72.191 46.5074C71.7416 45.9449 71.3991 45.1071 71.0362 44.2202C70.4578 42.8057 69.8019 41.202 68.4288 40.1049C67.0617 39.0139 65.3569 38.7304 63.8531 38.4803C62.9041 38.3224 62.0073 38.1734 61.351 37.8567C60.7197 37.552 60.0582 36.9536 59.3581 36.3199C58.2153 35.2859 56.9202 34.114 55.1808 33.7196C53.5027 33.3378 51.8574 33.819 50.4063 34.2433C49.4686 34.5177 48.5828 34.7769 47.8293 34.7769C47.0757 34.7769 46.1897 34.5177 45.252 34.2433C43.8009 33.8187 42.1561 33.3376 40.4787 33.7193C38.7381 34.1143 37.443 35.2859 36.3002 36.3199C35.5998 36.9534 34.9384 37.552 34.3075 37.8565C33.6507 38.1734 32.7542 38.3227 31.8051 38.4803C30.3011 38.7304 28.5966 39.0139 27.2285 40.1057C25.8559 41.2025 25.2 42.8057 24.6214 44.2204C24.2587 45.1073 23.9162 45.9449 23.4651 46.5101C23.2952 46.7235 23.0738 46.9414 22.777 47.1866H11.2352V46.5055C11.2352 45.5086 10.427 44.7003 9.43006 44.7003H9.22307V9.74776ZM7.62492 48.3104V83.4192C6.35747 82.9181 5.01179 82.5749 3.61028 82.4155V48.3104H7.62492ZM3.61028 96.3897V86.0542C8.93617 86.8427 13.1571 91.0638 13.9456 96.3897H9.43006H3.61028ZM86.228 96.3897H81.712C82.5005 91.0638 86.7216 86.8424 92.0478 86.0542V96.3897H86.228Z" fill="url(#paint0_linear)"/>
<path d="M47.8286 23.4661C48.8257 23.4661 49.6337 22.6578 49.6337 21.6609V17.3286C49.6337 16.3317 48.8257 15.5234 47.8286 15.5234C46.8317 15.5234 46.0234 16.3317 46.0234 17.3286V21.6609C46.0234 22.6578 46.8317 23.4661 47.8286 23.4661Z" fill="url(#paint1_linear)"/>
<path d="M34.8715 25.5045C35.1594 26.1996 35.8316 26.6191 36.54 26.6191C36.7703 26.6191 37.0043 26.5745 37.2303 26.4812C38.1514 26.0997 38.5887 25.0435 38.207 24.1224L35.6822 18.0283C35.3007 17.1072 34.2443 16.6699 33.3237 17.0516C32.4026 17.4331 31.9653 18.4892 32.347 19.4103L34.8715 25.5045Z" fill="url(#paint2_linear)"/>
<path d="M25.182 31.9793C25.5346 32.3322 25.9967 32.5086 26.4588 32.5086C26.9205 32.5086 27.3824 32.3326 27.7347 31.9803C28.4399 31.2756 28.4404 30.1328 27.7357 29.4276L24.6718 26.3612C23.967 25.656 22.8243 25.6555 22.1191 26.3603C21.4138 27.065 21.4134 28.2078 22.1181 28.913L25.182 31.9793Z" fill="url(#paint3_linear)"/>
<path d="M13.7845 39.9234L19.8787 42.4482C20.1047 42.5418 20.3386 42.5861 20.569 42.5861C21.2771 42.5861 21.9493 42.1663 22.2374 41.4715C22.6189 40.5504 22.1818 39.4945 21.2607 39.113L15.1665 36.5882C14.2454 36.2065 13.1896 36.6438 12.8081 37.5649C12.4261 38.486 12.8634 39.5419 13.7845 39.9234Z" fill="url(#paint4_linear)"/>
<path d="M73.4212 41.4715C73.709 42.1666 74.381 42.5861 75.0896 42.5861C75.3199 42.5861 75.5539 42.5418 75.7799 42.4482L81.8741 39.9234C82.7949 39.5419 83.2325 38.4858 82.8508 37.5649C82.469 36.6438 81.4136 36.2065 80.492 36.5882L74.3979 39.113C73.477 39.4947 73.0395 40.5506 73.4212 41.4715Z" fill="url(#paint5_linear)"/>
<path d="M69.1996 32.5083C69.6617 32.5083 70.1241 32.3319 70.4767 31.9791L73.5403 28.9127C74.2451 28.2075 74.2446 27.0645 73.5391 26.3598C72.8342 25.6553 71.6912 25.6553 70.9864 26.3608L67.9227 29.4271C67.218 30.1323 67.2185 31.2753 67.9239 31.98C68.2761 32.3322 68.7377 32.5083 69.1996 32.5083Z" fill="url(#paint6_linear)"/>
<path d="M58.4293 26.4815C58.655 26.5752 58.889 26.6195 59.1193 26.6195C59.8277 26.6195 60.4996 26.1997 60.7877 25.5046L63.3123 19.4104C63.694 18.4893 63.2567 17.4335 62.3354 17.052C61.415 16.6705 60.3584 17.1076 59.9769 18.0289L57.4523 24.1231C57.0708 25.0439 57.5082 26.0998 58.4293 26.4815Z" fill="url(#paint7_linear)"/>
<path d="M47.8278 64.5785C50.802 64.5785 53.2218 62.1587 53.2218 59.1843C53.2218 56.2099 50.802 53.79 47.8278 53.79C44.8534 53.79 42.4336 56.2099 42.4336 59.1843C42.4336 62.1587 44.8534 64.5785 47.8278 64.5785ZM47.8278 57.4006C48.8115 57.4006 49.6116 58.2008 49.6116 59.1845C49.6116 60.1682 48.8115 60.9685 47.8278 60.9685C46.8442 60.9685 46.0439 60.1682 46.0439 59.1845C46.0439 58.2008 46.8442 57.4006 47.8278 57.4006Z" fill="url(#paint8_linear)"/>
<defs>
<linearGradient id="paint0_linear" x1="47.829" y1="0" x2="47.829" y2="100" gradientUnits="userSpaceOnUse">
<stop stop-color="#F89D00"/>
<stop offset="0.359375" stop-color="#FE9700"/>
<stop offset="1" stop-color="#FF9400"/>
</linearGradient>
<linearGradient id="paint1_linear" x1="47.8286" y1="15.5234" x2="47.8286" y2="23.4661" gradientUnits="userSpaceOnUse">
<stop stop-color="#F89D00"/>
<stop offset="0.359375" stop-color="#FE9700"/>
<stop offset="1" stop-color="#FF9400"/>
</linearGradient>
<linearGradient id="paint2_linear" x1="35.277" y1="16.9136" x2="35.277" y2="26.6191" gradientUnits="userSpaceOnUse">
<stop stop-color="#F89D00"/>
<stop offset="0.359375" stop-color="#FE9700"/>
<stop offset="1" stop-color="#FF9400"/>
</linearGradient>
<linearGradient id="paint3_linear" x1="24.9269" y1="25.832" x2="24.9269" y2="32.5086" gradientUnits="userSpaceOnUse">
<stop stop-color="#F89D00"/>
<stop offset="0.359375" stop-color="#FE9700"/>
<stop offset="1" stop-color="#FF9400"/>
</linearGradient>
<linearGradient id="paint4_linear" x1="17.5226" y1="36.4502" x2="17.5226" y2="42.5861" gradientUnits="userSpaceOnUse">
<stop stop-color="#F89D00"/>
<stop offset="0.359375" stop-color="#FE9700"/>
<stop offset="1" stop-color="#FF9400"/>
</linearGradient>
<linearGradient id="paint5_linear" x1="78.136" y1="36.4502" x2="78.136" y2="42.5861" gradientUnits="userSpaceOnUse">
<stop stop-color="#F89D00"/>
<stop offset="0.359375" stop-color="#FE9700"/>
<stop offset="1" stop-color="#FF9400"/>
</linearGradient>
<linearGradient id="paint6_linear" x1="70.7315" y1="25.8315" x2="70.7315" y2="32.5083" gradientUnits="userSpaceOnUse">
<stop stop-color="#F89D00"/>
<stop offset="0.359375" stop-color="#FE9700"/>
<stop offset="1" stop-color="#FF9400"/>
</linearGradient>
<linearGradient id="paint7_linear" x1="60.3824" y1="16.9141" x2="60.3824" y2="26.6195" gradientUnits="userSpaceOnUse">
<stop stop-color="#F89D00"/>
<stop offset="0.359375" stop-color="#FE9700"/>
<stop offset="1" stop-color="#FF9400"/>
</linearGradient>
<linearGradient id="paint8_linear" x1="47.8277" y1="53.79" x2="47.8277" y2="64.5785" gradientUnits="userSpaceOnUse">
<stop stop-color="#F89D00"/>
<stop offset="0.359375" stop-color="#FE9700"/>
<stop offset="1" stop-color="#FF9400"/>
</linearGradient>
</defs>
</svg>
