<svg width="43" height="32" viewBox="0 0 43 32" fill="none" xmlns="http://www.w3.org/2000/svg">
<path d="M39.3456 0.214294H3.73306C2.18668 0.214294 0.928574 1.4724 0.928574 3.01878V28.6598C0.928574 30.2062 2.18668 31.4643 3.73306 31.4643H39.3456C40.892 31.4643 42.1501 30.2062 42.1501 28.6598V3.01878C42.1501 1.4724 40.892 0.214294 39.3456 0.214294ZM40.8146 3.01878V10.1858H26.4806V9.42904C26.4806 9.16221 26.4298 8.90714 26.3384 8.67227H38.6333C39.0021 8.67227 39.3011 8.3733 39.3011 8.00454V1.54976H39.3456C40.1556 1.54976 40.8146 2.20877 40.8146 3.01878ZM5.11305 21.4928H37.9656V27.2798H5.11305V21.4928ZM37.9656 20.1573H5.11305V14.3703H16.6445C16.9717 16.7801 19.0413 18.6438 21.5393 18.6438C24.0374 18.6438 26.1071 16.7801 26.4342 14.3703H37.9656V20.1573ZM5.11305 1.54976H19.4471V7.3368H18.6903H5.11305V1.54976ZM24.3883 7.3368H23.6316V1.54976H37.9656V7.3368H24.3883ZM22.2961 7.3368H20.7826V1.54976H22.2961V7.3368ZM24.3883 8.67227C24.8056 8.67227 25.1451 9.01175 25.1451 9.42904V13.7C25.1451 13.7009 25.145 13.7017 25.145 13.7025C25.145 13.7032 25.1451 13.7037 25.1451 13.7042C25.1441 15.6917 23.527 17.3083 21.5393 17.3083C19.5522 17.3083 17.9355 15.6926 17.9336 13.706C17.9336 13.7049 17.9338 13.7037 17.9338 13.7025C17.9338 13.7008 17.9336 13.6992 17.9336 13.6974V9.42904C17.9336 9.01175 18.273 8.67227 18.6903 8.67227H24.3883ZM3.73306 1.54976H3.77758V8.00454C3.77758 8.3733 4.07654 8.67227 4.44531 8.67227H16.7403C16.6488 8.90714 16.5981 9.16221 16.5981 9.42904V10.1858H2.26404V3.01878C2.26404 2.20877 2.92305 1.54976 3.73306 1.54976ZM39.3456 30.1288H3.73306C2.92305 30.1288 2.26404 29.4698 2.26404 28.6598V11.5213H16.5981V13.0348H4.44531C4.07654 13.0348 3.77758 13.3338 3.77758 13.7025V27.9476C3.77758 28.3163 4.07654 28.6153 4.44531 28.6153H38.6333C39.0021 28.6153 39.3011 28.3163 39.3011 27.9476V13.7025C39.3011 13.3338 39.0021 13.0348 38.6333 13.0348H26.4806V11.5213H40.8146V28.6598C40.8146 29.4698 40.1556 30.1288 39.3456 30.1288Z" fill="#E83F48"/>
</svg>
