<svg width="11" height="11" viewBox="0 0 11 11" fill="none" xmlns="http://www.w3.org/2000/svg">
<rect width="3" height="3" fill="url(#paint0_linear)"/>
<rect x="4" width="3" height="3" fill="url(#paint1_linear)"/>
<rect width="3" height="3" transform="matrix(-1 0 0 1 11 0)" fill="url(#paint2_linear)"/>
<rect y="4" width="3" height="3" fill="url(#paint3_linear)"/>
<rect x="4" y="4" width="3" height="3" fill="url(#paint4_linear)"/>
<rect width="3" height="3" transform="matrix(-1 0 0 1 11 4)" fill="url(#paint5_linear)"/>
<rect y="8" width="3" height="3" fill="url(#paint6_linear)"/>
<rect x="4" y="8" width="3" height="3" fill="url(#paint7_linear)"/>
<rect width="3" height="3" transform="matrix(-1 0 0 1 11 8)" fill="url(#paint8_linear)"/>
<defs>
<linearGradient id="paint0_linear" x1="1.5" y1="0" x2="1.5" y2="3" gradientUnits="userSpaceOnUse">
<stop stop-color="#F89D00"/>
<stop offset="0.359375" stop-color="#FE9700"/>
<stop offset="1" stop-color="#FF9400"/>
</linearGradient>
<linearGradient id="paint1_linear" x1="5.5" y1="0" x2="5.5" y2="3" gradientUnits="userSpaceOnUse">
<stop stop-color="#F89D00"/>
<stop offset="0.359375" stop-color="#FE9700"/>
<stop offset="1" stop-color="#FF9400"/>
</linearGradient>
<linearGradient id="paint2_linear" x1="1.5" y1="0" x2="1.5" y2="3" gradientUnits="userSpaceOnUse">
<stop stop-color="#F89D00"/>
<stop offset="0.359375" stop-color="#FE9700"/>
<stop offset="1" stop-color="#FF9400"/>
</linearGradient>
<linearGradient id="paint3_linear" x1="1.5" y1="4" x2="1.5" y2="7" gradientUnits="userSpaceOnUse">
<stop stop-color="#F89D00"/>
<stop offset="0.359375" stop-color="#FE9700"/>
<stop offset="1" stop-color="#FF9400"/>
</linearGradient>
<linearGradient id="paint4_linear" x1="5.5" y1="4" x2="5.5" y2="7" gradientUnits="userSpaceOnUse">
<stop stop-color="#F89D00"/>
<stop offset="0.359375" stop-color="#FE9700"/>
<stop offset="1" stop-color="#FF9400"/>
</linearGradient>
<linearGradient id="paint5_linear" x1="1.5" y1="0" x2="1.5" y2="3" gradientUnits="userSpaceOnUse">
<stop stop-color="#F89D00"/>
<stop offset="0.359375" stop-color="#FE9700"/>
<stop offset="1" stop-color="#FF9400"/>
</linearGradient>
<linearGradient id="paint6_linear" x1="1.5" y1="8" x2="1.5" y2="11" gradientUnits="userSpaceOnUse">
<stop stop-color="#F89D00"/>
<stop offset="0.359375" stop-color="#FE9700"/>
<stop offset="1" stop-color="#FF9400"/>
</linearGradient>
<linearGradient id="paint7_linear" x1="5.5" y1="8" x2="5.5" y2="11" gradientUnits="userSpaceOnUse">
<stop stop-color="#F89D00"/>
<stop offset="0.359375" stop-color="#FE9700"/>
<stop offset="1" stop-color="#FF9400"/>
</linearGradient>
<linearGradient id="paint8_linear" x1="1.5" y1="0" x2="1.5" y2="3" gradientUnits="userSpaceOnUse">
<stop stop-color="#F89D00"/>
<stop offset="0.359375" stop-color="#FE9700"/>
<stop offset="1" stop-color="#FF9400"/>
</linearGradient>
</defs>
</svg>
