<svg width="25" height="29" viewBox="0 0 25 29" fill="none" xmlns="http://www.w3.org/2000/svg">
<path d="M8.9461 7.96334C9.0891 7.96334 9.2311 7.92934 9.3631 7.86234L15.8581 4.53034C16.1781 4.36634 16.3751 4.03034 16.3631 3.66734C16.3511 3.30434 16.1331 2.98234 15.8031 2.83934L9.4161 0.0753363C9.1341 -0.0466637 8.8091 -0.0196636 8.5511 0.150336C8.2921 0.318336 8.1351 0.606336 8.1291 0.917336L8.0941 2.90334C3.1231 4.58334 -0.173903 9.27334 0.00709673 14.5543C0.151097 18.7483 2.5491 22.6033 6.2671 24.6133C6.4061 24.6883 6.5551 24.7233 6.7021 24.7233C7.0321 24.7233 7.3511 24.5443 7.5171 24.2303C7.7571 23.7753 7.5881 23.2103 7.1381 22.9673C3.9991 21.2693 1.9741 18.0213 1.8521 14.4893C1.7071 10.2653 4.2121 6.48934 8.0591 4.90534L8.0221 7.01234C8.0171 7.33934 8.1811 7.64634 8.4561 7.82034C8.6051 7.91634 8.7751 7.96334 8.9461 7.96334ZM13.2611 3.77034L9.8971 5.49634L9.9531 2.33834L13.2611 3.77034ZM23.9941 13.7453C23.8601 9.85134 21.8101 6.26334 18.5121 4.14634C18.0781 3.86934 17.5101 3.99834 17.2371 4.43434C16.9651 4.86934 17.0921 5.44634 17.5221 5.72234C20.3071 7.50934 22.0381 10.5323 22.1501 13.8093C22.2851 17.7273 20.1241 21.2953 16.6781 23.0553L16.6241 20.9493C16.6141 20.6223 16.4371 20.3243 16.1561 20.1623C15.8751 20.0013 15.5301 19.9993 15.2491 20.1603L8.9021 23.7623C8.5891 23.9403 8.4071 24.2843 8.4331 24.6463C8.4601 25.0073 8.6911 25.3203 9.0271 25.4493L15.5291 27.9413C15.6361 27.9813 15.7461 28.0013 15.8561 28.0013C16.0441 28.0013 16.2321 27.9423 16.3901 27.8293C16.6411 27.6493 16.7861 27.3543 16.7791 27.0443L16.7291 25.0863C21.2661 23.1633 24.1641 18.6893 23.9941 13.7453ZM11.5291 24.4113L14.8171 22.5453L14.8981 25.7023L11.5291 24.4113Z" fill="white"/>
</svg>
