<svg width="29" height="29" viewBox="0 0 29 29" fill="none" xmlns="http://www.w3.org/2000/svg">
<path d="M28.8956 22.5335L27.2113 17.6316C28.0232 15.9719 28.4522 14.1261 28.4551 12.2689C28.4601 9.03968 27.2107 5.98635 24.937 3.67145C22.6629 1.35609 19.6325 0.052731 16.404 0.00158446C13.0563 -0.0513179 9.90952 1.22208 7.54381 3.58773C5.26266 5.86882 3.99742 8.87605 3.95738 12.0896C1.70908 13.7824 0.382049 16.4216 0.38641 19.2405C0.388506 20.5597 0.685416 21.871 1.24803 23.0567L0.0878569 26.433C-0.111575 27.0134 0.0341049 27.6435 0.468086 28.0775C0.773493 28.383 1.17615 28.5456 1.59025 28.5456C1.76448 28.5456 1.94074 28.5168 2.11265 28.4578L5.48894 27.2976C6.67472 27.8602 7.986 28.1571 9.30517 28.1592C9.30992 28.1592 9.31446 28.1592 9.31921 28.1592C12.1801 28.1591 14.8394 26.7978 16.526 24.4944C18.2811 24.4482 20.0177 24.0234 21.5876 23.2554L26.4895 24.9397C26.6937 25.0099 26.9032 25.0441 27.1102 25.0441C27.6023 25.0441 28.0808 24.8509 28.4438 24.4878C28.9595 23.9721 29.1326 23.2232 28.8956 22.5335ZM9.3191 26.433C9.31542 26.433 9.31151 26.433 9.30783 26.433C8.14024 26.4313 6.98075 26.1434 5.95493 25.6007C5.744 25.4892 5.49636 25.4698 5.27082 25.5473L1.80877 26.737L2.9984 23.275C3.07588 23.0494 3.05662 22.8017 2.94504 22.5909C2.40231 21.565 2.11446 20.4055 2.11265 19.2379C2.10976 17.3597 2.84037 15.5796 4.11801 14.2466C4.53534 16.7907 5.74785 19.135 7.6273 20.9811C9.49287 22.8135 11.8379 23.9801 14.3682 24.3616C13.0321 25.6784 11.2312 26.433 9.3191 26.433ZM27.2231 23.2672C27.174 23.3163 27.1158 23.3297 27.0503 23.3071L21.8027 21.5039C21.7115 21.4726 21.6167 21.4571 21.5222 21.4571C21.3829 21.4571 21.2442 21.4908 21.1186 21.5573C19.6203 22.3499 17.9272 22.7703 16.2222 22.7729C16.2166 22.7729 16.2115 22.7729 16.2059 22.7729C10.4929 22.7729 5.77402 18.1321 5.6835 12.4205C5.63791 9.54401 6.73209 6.84061 8.76442 4.80828C10.7967 2.77596 13.5006 1.68217 16.3767 1.72748C22.0938 1.81816 26.7378 6.54579 26.7289 12.2662C26.7263 13.9712 26.3059 15.6644 25.5134 17.1626C25.4018 17.3735 25.3825 17.6211 25.46 17.8467L27.2632 23.0943C27.2856 23.16 27.2722 23.2182 27.2231 23.2672Z" fill="#7342EB"/>
<path d="M21.3477 7.6748H11.064C10.5873 7.6748 10.2009 8.06126 10.2009 8.5379C10.2009 9.01458 10.5874 9.40099 11.064 9.40099H21.3477C21.8244 9.40099 22.2108 9.01453 22.2108 8.5379C22.2108 8.06126 21.8244 7.6748 21.3477 7.6748Z" fill="#7342EB"/>
<path d="M21.3477 11.2246H11.064C10.5873 11.2246 10.2009 11.6111 10.2009 12.0877C10.2009 12.5643 10.5874 12.9508 11.064 12.9508H21.3477C21.8244 12.9508 22.2108 12.5643 22.2108 12.0877C22.2108 11.6111 21.8244 11.2246 21.3477 11.2246Z" fill="#7342EB"/>
<path d="M17.3893 14.7739H11.064C10.5873 14.7739 10.2009 15.1604 10.2009 15.637C10.2009 16.1137 10.5874 16.5001 11.064 16.5001H17.3892C17.8659 16.5001 18.2523 16.1136 18.2523 15.637C18.2523 15.1604 17.866 14.7739 17.3893 14.7739Z" fill="#7342EB"/>
</svg>
