<svg width="17" height="19" viewBox="0 0 17 19" fill="none" xmlns="http://www.w3.org/2000/svg">
<path fill-rule="evenodd" clip-rule="evenodd" d="M5.53373 0H15.3427C16.2419 0 16.9776 0.84375 16.9776 1.875V13.125C16.9776 14.1562 16.2419 15 15.3427 15H5.53373C4.63458 15 3.8989 14.1562 3.8989 13.125V1.875C3.8989 0.84375 4.63458 0 5.53373 0ZM15.3427 13.125V1.875H5.53369V13.125H15.3427ZM8.3951 9.06557L9.77653 11.1843L11.8037 8.27807L14.5257 12.1874H6.35156L8.3951 9.06557ZM0.629395 16.875V3.75H2.26423V16.875H13.708V18.75H2.26423C1.36507 18.75 0.629395 17.9062 0.629395 16.875Z" fill="#606060"/>
</svg>
