<svg width="17" height="20" viewBox="0 0 17 20" fill="none" xmlns="http://www.w3.org/2000/svg">
<path d="M0.769231 17.1795C0.565218 17.1795 0.369561 17.0984 0.225302 16.9542C0.0810436 16.8099 0 16.6143 0 16.4103V2.30769C0 1.69565 0.243131 1.10868 0.675908 0.675907C1.10868 0.243131 1.69565 0 2.30769 0H7.69231C7.89632 4.29925e-09 8.09198 0.0810436 8.23623 0.225302C8.38049 0.369561 8.46154 0.565218 8.46154 0.769231C8.46154 0.973244 8.38049 1.1689 8.23623 1.31316C8.09198 1.45742 7.89632 1.53846 7.69231 1.53846H2.30769C2.10368 1.53846 1.90802 1.61951 1.76376 1.76376C1.61951 1.90802 1.53846 2.10368 1.53846 2.30769V16.4103C1.53846 16.6143 1.45742 16.8099 1.31316 16.9542C1.1689 17.0984 0.973243 17.1795 0.769231 17.1795Z" fill="#070707"/>
<path d="M16.1848 7.40535L12.0823 3.30279C11.9382 3.15849 11.7426 3.07733 11.5387 3.07715H5.38484C4.7728 3.07715 4.18583 3.32028 3.75306 3.75306C3.32028 4.18583 3.07715 4.7728 3.07715 5.38484V17.6925C3.07715 18.3046 3.32028 18.8915 3.75306 19.3243C4.18583 19.7571 4.7728 20.0002 5.38484 20.0002H14.1028C14.7148 20.0002 15.3018 19.7571 15.7346 19.3243C16.1673 18.8915 16.4105 18.3046 16.4105 17.6925V7.94894C16.4103 7.745 16.3291 7.54947 16.1848 7.40535ZM12.0515 8.20535C11.8475 8.20535 11.6518 8.12431 11.5076 7.98005C11.3633 7.83579 11.2823 7.64014 11.2823 7.43612V4.10279L15.3848 8.20535H12.0515Z" fill="#070707"/>
</svg>
