<svg width="22" height="21" viewBox="0 0 22 21" fill="none" xmlns="http://www.w3.org/2000/svg">
<path d="M11 1.875C15.9629 1.875 20 5.7439 20 10.5C20 15.2561 15.9629 19.125 11 19.125C6.03711 19.125 2 15.2561 2 10.5C2 5.7439 6.03711 1.875 11 1.875ZM11 0.4375C5.20067 0.4375 0.5 4.94231 0.5 10.5C0.5 16.0577 5.20067 20.5625 11 20.5625C16.7993 20.5625 21.5 16.0577 21.5 10.5C21.5 4.94231 16.7993 0.4375 11 0.4375ZM8 5.46875C7.17088 5.46875 6.5 6.43457 6.5 7.625C6.5 8.81682 7.17092 9.78125 8 9.78125C8.82908 9.78125 9.5 8.81682 9.5 7.625C9.5 6.43457 8.82912 5.46875 8 5.46875ZM14 5.46875C13.1709 5.46875 12.5 6.43457 12.5 7.625C12.5 8.81682 13.1709 9.78125 14 9.78125C14.8291 9.78125 15.5 8.81682 15.5 7.625C15.5 6.43457 14.8291 5.46875 14 5.46875ZM17.7207 12.1383C17.8364 11.7578 17.6079 11.3591 17.2095 11.2468C16.8125 11.1331 16.3965 11.3563 16.2793 11.7354C15.5996 13.9702 13.4287 15.5312 11 15.5312C8.57127 15.5312 6.40039 13.9702 5.71995 11.7354C5.60422 11.3563 5.19261 11.1331 4.78977 11.2468C4.39208 11.3591 4.16427 11.7578 4.28 12.1383C5.14573 14.9823 7.9092 16.9688 11 16.9688C14.0908 16.9688 16.8535 14.9823 17.7207 12.1383Z" fill="#A3A3A3"/>
</svg>
