<svg width="39" height="40" viewBox="0 0 39 40" fill="none" xmlns="http://www.w3.org/2000/svg">
<path d="M38.255 39.392H0.485001C0.226001 39.392 0 39.165 0 38.906V1.07498C0 0.815982 0.226001 0.588989 0.485001 0.588989H38.255C38.514 0.588989 38.74 0.815982 38.74 1.07498V38.906C38.74 39.165 38.514 39.392 38.255 39.392ZM0.970001 38.42H37.77V1.56099H0.970001V38.42Z" fill="#EB8608"/>
<path d="M38.255 6.937H0.485001C0.226001 6.937 0 6.711 0 6.452V1.04201C0 0.783007 0.226001 0.557007 0.485001 0.557007H38.255C38.514 0.557007 38.74 0.783007 38.74 1.04201V6.452C38.74 6.743 38.514 6.937 38.255 6.937ZM0.970001 5.966H37.77V1.528H0.970001V5.966Z" fill="#EB8608"/>
<path d="M24.0263 17.237H14.0983C13.8403 17.237 13.6133 17.01 13.6133 16.751V11.925C13.6133 11.666 13.8403 11.439 14.0983 11.439H24.0263C24.2853 11.439 24.5113 11.666 24.5113 11.925V16.751C24.5113 17.01 24.3173 17.237 24.0263 17.237ZM14.5833 16.266H23.5413V12.411H14.5833V16.266Z" fill="#EB8608"/>
</svg>
