<svg width="40" height="40" viewBox="0 0 40 40" fill="none" xmlns="http://www.w3.org/2000/svg">
<rect x="0.5" y="0.5" width="39" height="38.0244" rx="9.5" fill="url(#paint0_linear)" stroke="url(#paint1_linear)"/>
<path d="M30.7274 13.6364H15.2729C15.0318 13.6364 14.8005 13.5406 14.63 13.3701C14.4595 13.1996 14.3638 12.9684 14.3638 12.7273C14.3638 12.4862 14.4595 12.2549 14.63 12.0844C14.8005 11.914 15.0318 11.8182 15.2729 11.8182H30.7274C30.9685 11.8182 31.1997 11.914 31.3702 12.0844C31.5407 12.2549 31.6365 12.4862 31.6365 12.7273C31.6365 12.9684 31.5407 13.1996 31.3702 13.3701C31.1997 13.5406 30.9685 13.6364 30.7274 13.6364Z" fill="#070707"/>
<path d="M11.6364 13.6364H8.90909C8.66798 13.6364 8.43675 13.5406 8.26627 13.3701C8.09578 13.1996 8 12.9684 8 12.7273C8 12.4862 8.09578 12.2549 8.26627 12.0844C8.43675 11.914 8.66798 11.8182 8.90909 11.8182H11.6364C11.8775 11.8182 12.1087 11.914 12.2792 12.0844C12.4497 12.2549 12.5455 12.4862 12.5455 12.7273C12.5455 12.9684 12.4497 13.1996 12.2792 13.3701C12.1087 13.5406 11.8775 13.6364 11.6364 13.6364Z" fill="#070707"/>
<path d="M24.3636 20.9091H8.90909C8.66799 20.9091 8.43675 20.8133 8.26627 20.6428C8.09578 20.4723 8 20.2411 8 20C8 19.7589 8.09578 19.5277 8.26627 19.3572C8.43675 19.1867 8.66799 19.0909 8.90909 19.0909H24.3636C24.6047 19.0909 24.836 19.1867 25.0065 19.3572C25.177 19.5277 25.2727 19.7589 25.2727 20C25.2727 20.2411 25.177 20.4723 25.0065 20.6428C24.836 20.8133 24.6047 20.9091 24.3636 20.9091Z" fill="#070707"/>
<path d="M15.2727 28.1818H8.90909C8.66798 28.1818 8.43675 28.086 8.26627 27.9156C8.09578 27.7451 8 27.5138 8 27.2727C8 27.0316 8.09578 26.8004 8.26627 26.6299C8.43675 26.4594 8.66798 26.3636 8.90909 26.3636H15.2727C15.5138 26.3636 15.7451 26.4594 15.9156 26.6299C16.086 26.8004 16.1818 27.0316 16.1818 27.2727C16.1818 27.5138 16.086 27.7451 15.9156 27.9156C15.7451 28.086 15.5138 28.1818 15.2727 28.1818Z" fill="#070707"/>
<path d="M13.4543 15.4545C12.9149 15.4545 12.3876 15.2946 11.9391 14.9949C11.4906 14.6952 11.1411 14.2693 10.9347 13.771C10.7282 13.2726 10.6742 12.7242 10.7795 12.1952C10.8847 11.6662 11.1444 11.1802 11.5259 10.7988C11.9073 10.4174 12.3932 10.1576 12.9223 10.0524C13.4513 9.94717 13.9997 10.0012 14.498 10.2076C14.9964 10.414 15.4223 10.7636 15.722 11.2121C16.0216 11.6606 16.1816 12.1879 16.1816 12.7273C16.1816 13.4506 15.8943 14.1443 15.3828 14.6557C14.8713 15.1672 14.1776 15.4545 13.4543 15.4545ZM13.4543 11.8182C13.2745 11.8182 13.0988 11.8715 12.9493 11.9714C12.7998 12.0713 12.6832 12.2133 12.6144 12.3794C12.5456 12.5455 12.5276 12.7283 12.5627 12.9046C12.5978 13.081 12.6844 13.243 12.8115 13.3701C12.9386 13.4972 13.1006 13.5838 13.277 13.6189C13.4533 13.654 13.6361 13.636 13.8022 13.5672C13.9683 13.4984 14.1103 13.3818 14.2102 13.2323C14.3101 13.0828 14.3634 12.9071 14.3634 12.7273C14.3634 12.4862 14.2676 12.2549 14.0971 12.0844C13.9267 11.914 13.6954 11.8182 13.4543 11.8182Z" fill="#070707"/>
<path d="M26.1819 22.7273C25.6425 22.7273 25.1152 22.5673 24.6667 22.2676C24.2182 21.968 23.8686 21.542 23.6622 21.0437C23.4558 20.5453 23.4018 19.997 23.507 19.4679C23.6122 18.9389 23.872 18.4529 24.2534 18.0715C24.6348 17.6901 25.1208 17.4304 25.6498 17.3251C26.1788 17.2199 26.7272 17.2739 27.2255 17.4803C27.7239 17.6867 28.1498 18.0363 28.4495 18.4848C28.7492 18.9333 28.9091 19.4606 28.9091 20C28.9091 20.7233 28.6218 21.417 28.1103 21.9285C27.5989 22.4399 26.9052 22.7273 26.1819 22.7273ZM26.1819 19.0909C26.0021 19.0909 25.8263 19.1442 25.6768 19.2441C25.5273 19.344 25.4108 19.486 25.342 19.6521C25.2732 19.8182 25.2552 20.001 25.2902 20.1774C25.3253 20.3537 25.4119 20.5157 25.539 20.6428C25.6662 20.77 25.8282 20.8565 26.0045 20.8916C26.1809 20.9267 26.3636 20.9087 26.5298 20.8399C26.6959 20.7711 26.8379 20.6546 26.9377 20.5051C27.0376 20.3556 27.091 20.1798 27.091 20C27.091 19.7589 26.9952 19.5277 26.8247 19.3572C26.6542 19.1867 26.423 19.0909 26.1819 19.0909Z" fill="#070707"/>
<path d="M17.091 30C16.5516 30 16.0243 29.8401 15.5759 29.5404C15.1274 29.2407 14.7778 28.8148 14.5714 28.3164C14.365 27.8181 14.3109 27.2697 14.4162 26.7407C14.5214 26.2116 14.7812 25.7257 15.1626 25.3443C15.544 24.9628 16.0299 24.7031 16.559 24.5979C17.088 24.4926 17.6364 24.5466 18.1347 24.7531C18.6331 24.9595 19.059 25.309 19.3587 25.7575C19.6584 26.206 19.8183 26.7333 19.8183 27.2727C19.8183 27.996 19.531 28.6897 19.0195 29.2012C18.5081 29.7127 17.8144 30 17.091 30ZM17.091 26.3636C16.9112 26.3636 16.7355 26.417 16.586 26.5168C16.4365 26.6167 16.32 26.7587 16.2512 26.9248C16.1823 27.091 16.1643 27.2737 16.1994 27.4501C16.2345 27.6264 16.3211 27.7884 16.4482 27.9156C16.5754 28.0427 16.7373 28.1293 16.9137 28.1644C17.09 28.1994 17.2728 28.1814 17.4389 28.1126C17.6051 28.0438 17.747 27.9273 17.8469 27.7778C17.9468 27.6283 18.0001 27.4525 18.0001 27.2727C18.0001 27.0316 17.9044 26.8004 17.7339 26.6299C17.5634 26.4594 17.3321 26.3636 17.091 26.3636Z" fill="#070707"/>
<path d="M30.7272 20.9091H27.9999C27.7588 20.9091 27.5276 20.8133 27.3571 20.6428C27.1866 20.4723 27.0908 20.2411 27.0908 20C27.0908 19.7589 27.1866 19.5277 27.3571 19.3572C27.5276 19.1867 27.7588 19.0909 27.9999 19.0909H30.7272C30.9683 19.0909 31.1995 19.1867 31.37 19.3572C31.5405 19.5277 31.6363 19.7589 31.6363 20C31.6363 20.2411 31.5405 20.4723 31.37 20.6428C31.1995 20.8133 30.9683 20.9091 30.7272 20.9091Z" fill="#070707"/>
<path d="M30.7273 28.1818H18.9091C18.668 28.1818 18.4368 28.086 18.2663 27.9156C18.0958 27.7451 18 27.5138 18 27.2727C18 27.0316 18.0958 26.8004 18.2663 26.6299C18.4368 26.4594 18.668 26.3636 18.9091 26.3636H30.7273C30.9684 26.3636 31.1996 26.4594 31.3701 26.6299C31.5406 26.8004 31.6364 27.0316 31.6364 27.2727C31.6364 27.5138 31.5406 27.7451 31.3701 27.9156C31.1996 28.086 30.9684 28.1818 30.7273 28.1818Z" fill="#070707"/>
<defs>
<linearGradient id="paint0_linear" x1="20" y1="0" x2="20" y2="39.0244" gradientUnits="userSpaceOnUse">
<stop stop-color="#F89D00"/>
<stop offset="0.359375" stop-color="#FE9700"/>
<stop offset="1" stop-color="#FF9400"/>
</linearGradient>
<linearGradient id="paint1_linear" x1="20" y1="0" x2="20" y2="39.0244" gradientUnits="userSpaceOnUse">
<stop stop-color="#F89D00"/>
<stop offset="0.359375" stop-color="#FE9700"/>
<stop offset="1" stop-color="#FF9400"/>
</linearGradient>
</defs>
</svg>
