<svg width="37" height="38" viewBox="0 0 37 38" fill="none" xmlns="http://www.w3.org/2000/svg">
<path d="M27.2314 19.6728C29.372 19.6728 31.1073 17.7815 31.1073 15.4485C31.1073 13.1154 29.372 11.2241 27.2314 11.2241C25.0908 11.2241 23.3555 13.1154 23.3555 15.4485C23.3555 17.7815 25.0908 19.6728 27.2314 19.6728Z" stroke="#FB9414" stroke-miterlimit="10" stroke-linecap="round" stroke-linejoin="round"/>
<path d="M14.8285 9.53367C16.9692 9.53367 18.7045 7.64236 18.7045 5.30931C18.7045 2.97627 16.9692 1.08496 14.8285 1.08496C12.6879 1.08496 10.9526 2.97627 10.9526 5.30931C10.9526 7.64236 12.6879 9.53367 14.8285 9.53367Z" stroke="#FB9414" stroke-miterlimit="10" stroke-linecap="round" stroke-linejoin="round"/>
<path d="M22.5801 28.9663C22.5801 28.9663 29.1226 26.0092 31.4327 25.5868C33.3551 25.232 34.5954 26.1613 35.3396 26.8541C36.2388 27.6821 35.9597 29.2873 34.8435 29.7267L16.5492 36.9081C15.2004 37.4319 13.7275 37.3643 12.4407 36.7053L1.77421 31.2643C1.23159 30.994 0.875 30.3857 0.875 29.7267V20.5852C0.875 19.5882 1.66568 18.811 2.5804 18.8955C4.34781 19.0813 6.76638 19.7403 10.1772 22.2073H10.4407H16.9523C20.6111 22.2073 22.5801 25.232 22.5801 28.9663ZM22.5801 28.9663H22.022H10.1772" stroke="#FB9414" stroke-miterlimit="10" stroke-linecap="round" stroke-linejoin="round"/>
</svg>
