<svg width="14" height="11" viewBox="0 0 14 11" fill="none" xmlns="http://www.w3.org/2000/svg">
<path d="M10.8503 0.680142C10.8591 0.265229 10.8433 0.00306369 10.8433 0.00306369L6.78872 0H6.76815H6.74758L2.69256 0.00306369C2.69256 0.00306369 2.67724 0.265229 2.68599 0.680142H0V1.12307C0 1.22417 0.0170692 3.60904 1.48896 4.91549C2.10301 5.46039 2.86894 5.73437 3.77185 5.73481C3.90841 5.73481 4.0489 5.72562 4.19114 5.71336C4.70409 6.41583 5.2967 6.90777 5.96327 7.15287V9.09832H4.00645V10.3168H3.36V11H6.74758H6.78872H10.1763V10.3172H9.52942V9.09875H7.57259V7.1533C8.23873 6.90821 8.83177 6.41627 9.34473 5.7138C9.48784 5.72606 9.62834 5.73481 9.76489 5.73481C10.6674 5.73394 11.4333 5.46039 12.0473 4.91505C13.5192 3.6086 13.5363 1.22373 13.5363 1.12263V0.680142H10.8503ZM2.07982 4.25504C1.23905 3.511 0.990451 2.23738 0.916922 1.56599H2.73676C2.81379 2.40238 2.99499 3.44447 3.41296 4.36052C3.48956 4.52859 3.57009 4.6879 3.65237 4.84371C3.02519 4.81964 2.49735 4.624 2.07982 4.25504ZM11.4565 4.25504C11.0394 4.62444 10.5111 4.81964 9.88437 4.84371C9.96666 4.68834 10.0472 4.52859 10.1238 4.36052C10.5418 3.44447 10.723 2.40238 10.7995 1.56599H12.6194C12.5459 2.23694 12.2977 3.51056 11.4565 4.25504Z" fill="url(#paint0_linear)"/>
<defs>
<linearGradient id="paint0_linear" x1="6.76815" y1="0" x2="6.76815" y2="11" gradientUnits="userSpaceOnUse">
<stop stop-color="#F89D00"/>
<stop offset="0.359375" stop-color="#FE9700"/>
<stop offset="1" stop-color="#FF9400"/>
</linearGradient>
</defs>
</svg>
