<svg width="160" height="30" viewBox="0 0 160 30" fill="none" xmlns="http://www.w3.org/2000/svg">
<rect width="160" height="30" rx="10" fill="url(#paint0_linear)"/>
<path d="M18.4473 20H16.335V15.6865H12.377V20H10.2578V10.0059H12.377V13.9229H16.335V10.0059H18.4473V20ZM26.106 20L25.7027 18.9609H25.648C25.2971 19.403 24.9348 19.7106 24.5611 19.8838C24.192 20.0524 23.7089 20.1367 23.1119 20.1367C22.3782 20.1367 21.7994 19.9271 21.3755 19.5078C20.9563 19.0885 20.7466 18.4915 20.7466 17.7168C20.7466 16.9056 21.0292 16.3086 21.5943 15.9258C22.164 15.5384 23.0207 15.3242 24.1646 15.2832L25.4908 15.2422V14.9072C25.4908 14.1325 25.0943 13.7451 24.3013 13.7451C23.6907 13.7451 22.9729 13.9297 22.148 14.2988L21.4576 12.8906C22.3371 12.4303 23.3124 12.2002 24.3834 12.2002C25.4087 12.2002 26.1949 12.4235 26.7418 12.8701C27.2886 13.3167 27.5621 13.9958 27.5621 14.9072V20H26.106ZM25.4908 16.459L24.6841 16.4863C24.078 16.5046 23.6268 16.6139 23.3306 16.8145C23.0344 17.015 22.8863 17.3203 22.8863 17.7305C22.8863 18.3184 23.2235 18.6123 23.898 18.6123C24.3811 18.6123 24.7662 18.4733 25.0533 18.1953C25.3449 17.9173 25.4908 17.5482 25.4908 17.0879V16.459ZM31.9874 12.3574V15.1533C31.9874 15.8187 32.295 16.1514 32.9103 16.1514C33.3113 16.1514 33.6827 16.1058 34.0245 16.0146C34.3709 15.9235 34.7195 15.805 35.0704 15.6592V12.3574H37.1554V20H35.0704V16.9648C34.5874 17.2201 34.1385 17.4001 33.7237 17.5049C33.309 17.6097 32.908 17.6621 32.5206 17.6621C31.6866 17.6621 31.0418 17.4502 30.5861 17.0264C30.1303 16.598 29.9025 15.9896 29.9025 15.2012V12.3574H31.9874ZM44.6364 20L44.2331 18.9609H44.1784C43.8275 19.403 43.4652 19.7106 43.0915 19.8838C42.7223 20.0524 42.2393 20.1367 41.6423 20.1367C40.9085 20.1367 40.3298 19.9271 39.9059 19.5078C39.4867 19.0885 39.277 18.4915 39.277 17.7168C39.277 16.9056 39.5596 16.3086 40.1247 15.9258C40.6943 15.5384 41.5511 15.3242 42.695 15.2832L44.0212 15.2422V14.9072C44.0212 14.1325 43.6247 13.7451 42.8317 13.7451C42.221 13.7451 41.5033 13.9297 40.6784 14.2988L39.988 12.8906C40.8675 12.4303 41.8428 12.2002 42.9137 12.2002C43.9391 12.2002 44.7253 12.4235 45.2721 12.8701C45.819 13.3167 46.0925 13.9958 46.0925 14.9072V20H44.6364ZM44.0212 16.459L43.2145 16.4863C42.6084 16.5046 42.1572 16.6139 41.861 16.8145C41.5648 17.015 41.4167 17.3203 41.4167 17.7305C41.4167 18.3184 41.7539 18.6123 42.4284 18.6123C42.9115 18.6123 43.2966 18.4733 43.5837 18.1953C43.8753 17.9173 44.0212 17.5482 44.0212 17.0879V16.459ZM55.009 12.3574V13.9229H52.5071V20H50.4221V13.9229H47.9133V12.3574H55.009ZM58.9627 15.3105H60.4324C61.6082 15.3105 62.4786 15.4974 63.0438 15.8711C63.6089 16.2448 63.8914 16.8099 63.8914 17.5664C63.8914 19.1888 62.7658 20 60.5145 20H56.8777V12.3574H58.9627V15.3105ZM61.8064 17.5938C61.8064 17.2975 61.688 17.0833 61.451 16.9512C61.214 16.819 60.8608 16.7529 60.3914 16.7529H58.9627V18.5576H60.4188C61.3439 18.5576 61.8064 18.2363 61.8064 17.5938ZM72.0107 12.3574V15.3789C72.0107 15.6979 71.9583 16.4772 71.8534 17.7168L75.3808 12.3574H77.8896V20H75.873V16.9512C75.873 16.4089 75.9185 15.6432 76.0097 14.6543L72.496 20H69.9941V12.3574H72.0107ZM85.8012 12.3574V13.9229H82.6089V20H80.5239V12.3574H85.8012ZM91.8604 20.1367C90.9626 20.1367 90.2585 19.8109 89.7481 19.1592H89.6387C89.7116 19.7972 89.7481 20.1663 89.7481 20.2666V23.3633H87.6631V12.3574H89.3584L89.6524 13.3486H89.7481C90.2357 12.5921 90.958 12.2139 91.9151 12.2139C92.8174 12.2139 93.5238 12.5625 94.0342 13.2598C94.5446 13.957 94.7998 14.9255 94.7998 16.165C94.7998 16.9808 94.6791 17.6895 94.4375 18.291C94.2006 18.8926 93.861 19.3506 93.419 19.665C92.9769 19.9795 92.4574 20.1367 91.8604 20.1367ZM91.2452 13.8818C90.7302 13.8818 90.3542 14.0413 90.1172 14.3604C89.8802 14.6748 89.7572 15.1966 89.7481 15.9258V16.1514C89.7481 16.9717 89.8689 17.5596 90.1104 17.915C90.3565 18.2705 90.7439 18.4482 91.2725 18.4482C92.2067 18.4482 92.6739 17.6781 92.6739 16.1377C92.6739 15.3857 92.5577 14.8229 92.3252 14.4492C92.0974 14.071 91.7373 13.8818 91.2452 13.8818ZM101.816 20L101.413 18.9609H101.358C101.007 19.403 100.645 19.7106 100.271 19.8838C99.902 20.0524 99.4189 20.1367 98.8219 20.1367C98.0882 20.1367 97.5094 19.9271 97.0855 19.5078C96.6663 19.0885 96.4566 18.4915 96.4566 17.7168C96.4566 16.9056 96.7392 16.3086 97.3043 15.9258C97.874 15.5384 98.7307 15.3242 99.8746 15.2832L101.201 15.2422V14.9072C101.201 14.1325 100.804 13.7451 100.011 13.7451C99.4007 13.7451 98.6829 13.9297 97.858 14.2988L97.1676 12.8906C98.0471 12.4303 99.0224 12.2002 100.093 12.2002C101.119 12.2002 101.905 12.4235 102.452 12.8701C102.999 13.3167 103.272 13.9958 103.272 14.9072V20H101.816ZM101.201 16.459L100.394 16.4863C99.788 16.5046 99.3369 16.6139 99.0406 16.8145C98.7444 17.015 98.5963 17.3203 98.5963 17.7305C98.5963 18.3184 98.9335 18.6123 99.608 18.6123C100.091 18.6123 100.476 18.4733 100.763 18.1953C101.055 17.9173 101.201 17.5482 101.201 17.0879V16.459ZM112.189 12.3574V13.9229H109.687V20H107.602V13.9229H105.093V12.3574H112.189ZM116.142 15.3105H117.612C118.788 15.3105 119.658 15.4974 120.223 15.8711C120.788 16.2448 121.071 16.8099 121.071 17.5664C121.071 19.1888 119.945 20 117.694 20H114.057V12.3574H116.142V15.3105ZM118.986 17.5938C118.986 17.2975 118.868 17.0833 118.631 16.9512C118.394 16.819 118.04 16.7529 117.571 16.7529H116.142V18.5576H117.598C118.523 18.5576 118.986 18.2363 118.986 17.5938Z" fill="black"/>
<path d="M140 5C141.313 5 142.614 5.25866 143.827 5.7612C145.04 6.26375 146.142 7.00035 147.071 7.92893C148 8.85752 148.736 9.95991 149.239 11.1732C149.741 12.3864 150 13.6868 150 15C150 17.6522 148.946 20.1957 147.071 22.0711C145.196 23.9464 142.652 25 140 25C135.4 25 131.55 21.92 130.36 17.73L134.19 19.31C134.45 20.6 135.6 21.58 136.97 21.58C138.53 21.58 139.8 20.31 139.8 18.75V18.62L143.2 16.19H143.28C145.36 16.19 147.05 14.5 147.05 12.42C147.05 10.34 145.36 8.65 143.28 8.65C141.2 8.65 139.5 10.34 139.5 12.42V12.47L137.13 15.93L136.97 15.92C136.38 15.92 135.83 16.1 135.38 16.41L130 14.2C130.43 9.05 134.73 5 140 5ZM136.28 20.17C137.08 20.5 138 20.13 138.33 19.33C138.66 18.53 138.28 17.62 137.5 17.29L136.22 16.76C136.71 16.58 137.26 16.57 137.78 16.79C138.31 17 138.72 17.41 138.93 17.94C139.15 18.46 139.15 19.04 138.93 19.56C138.5 20.64 137.23 21.16 136.15 20.71C135.65 20.5 135.27 20.12 135.06 19.67L136.28 20.17ZM145.8 12.42C145.8 13.81 144.67 14.94 143.28 14.94C141.9 14.94 140.77 13.81 140.77 12.42C140.769 12.09 140.833 11.763 140.958 11.4579C141.084 11.1528 141.269 10.8756 141.502 10.6422C141.736 10.4089 142.013 10.224 142.318 10.0984C142.623 9.9727 142.95 9.90868 143.28 9.91C144.67 9.91 145.8 11.04 145.8 12.42ZM141.4 12.42C141.4 13.46 142.24 14.31 143.29 14.31C144.33 14.31 145.17 13.46 145.17 12.42C145.17 11.38 144.33 10.53 143.29 10.53C142.24 10.53 141.4 11.38 141.4 12.42Z" fill="black"/>
<defs>
<linearGradient id="paint0_linear" x1="80" y1="0" x2="80" y2="30" gradientUnits="userSpaceOnUse">
<stop stop-color="#F89D00"/>
<stop offset="0.359375" stop-color="#FE9700"/>
<stop offset="1" stop-color="#FF9400"/>
</linearGradient>
</defs>
</svg>
