<svg width="190" height="40" viewBox="0 0 190 40" fill="none" xmlns="http://www.w3.org/2000/svg">
<rect width="190" height="40" rx="10" fill="url(#paint0_linear)"/>
<path d="M11.2578 15.0059H14.3682C15.7855 15.0059 16.8132 15.2087 17.4512 15.6143C18.0938 16.0153 18.415 16.6556 18.415 17.5352C18.415 18.1322 18.2738 18.6221 17.9912 19.0049C17.7132 19.3877 17.3418 19.6178 16.877 19.6953V19.7637C17.5104 19.9049 17.9661 20.1693 18.2441 20.5566C18.5267 20.944 18.668 21.459 18.668 22.1016C18.668 23.013 18.3376 23.724 17.6768 24.2344C17.0205 24.7448 16.1273 25 14.9971 25H11.2578V15.0059ZM13.377 18.9639H14.6074C15.1816 18.9639 15.5964 18.875 15.8516 18.6973C16.1113 18.5195 16.2412 18.2256 16.2412 17.8154C16.2412 17.4326 16.0999 17.1592 15.8174 16.9951C15.5394 16.8265 15.0973 16.7422 14.4912 16.7422H13.377V18.9639ZM13.377 20.6455V23.25H14.7578C15.3411 23.25 15.7718 23.1383 16.0498 22.915C16.3278 22.6917 16.4668 22.3499 16.4668 21.8896C16.4668 21.0602 15.8743 20.6455 14.6895 20.6455H13.377ZM22.6011 21.165C22.6011 21.9215 22.7242 22.4935 22.9703 22.8809C23.2209 23.2682 23.6265 23.4619 24.1871 23.4619C24.7431 23.4619 25.1418 23.2705 25.3834 22.8877C25.6295 22.5003 25.7525 21.9261 25.7525 21.165C25.7525 20.4085 25.6295 19.8411 25.3834 19.4629C25.1373 19.0846 24.7339 18.8955 24.1734 18.8955C23.6174 18.8955 23.2164 19.0846 22.9703 19.4629C22.7242 19.8366 22.6011 20.404 22.6011 21.165ZM27.8853 21.165C27.8853 22.4092 27.5572 23.3822 26.9009 24.084C26.2447 24.7858 25.331 25.1367 24.1597 25.1367C23.426 25.1367 22.7789 24.9772 22.2183 24.6582C21.6578 24.3346 21.2271 23.8721 20.9263 23.2705C20.6255 22.6689 20.4752 21.9671 20.4752 21.165C20.4752 19.9163 20.801 18.9456 21.4527 18.2529C22.1044 17.5602 23.0204 17.2139 24.2007 17.2139C24.9345 17.2139 25.5816 17.3734 26.1421 17.6924C26.7027 18.0114 27.1334 18.4694 27.4341 19.0664C27.7349 19.6634 27.8853 20.363 27.8853 21.165ZM32.0646 17.3574V20.3789C32.0646 20.6979 32.0122 21.4772 31.9073 22.7168L35.4347 17.3574H37.9435V25H35.9269V21.9512C35.9269 21.4089 35.9724 20.6432 36.0636 19.6543L32.5499 25H30.048V17.3574H32.0646ZM37.3282 14.0693C37.2417 14.9215 36.9204 15.5436 36.3644 15.9355C35.8084 16.3229 35.0063 16.5166 33.9581 16.5166C32.878 16.5166 32.0782 16.3298 31.5587 15.9561C31.0437 15.5824 30.7543 14.9535 30.6905 14.0693H32.5568C32.5887 14.5387 32.7049 14.8691 32.9054 15.0605C33.1105 15.2474 33.4751 15.3408 33.9991 15.3408C34.4594 15.3408 34.8012 15.2383 35.0245 15.0332C35.2524 14.8236 35.3914 14.5023 35.4415 14.0693H37.3282ZM46.9011 17.3574V18.9229H44.3991V25H42.3141V18.9229H39.8054V17.3574H46.9011ZM50.7864 17.3574V20.3789C50.7864 20.6979 50.734 21.4772 50.6291 22.7168L54.1565 17.3574H56.6653V25H54.6487V21.9512C54.6487 21.4089 54.6942 20.6432 54.7854 19.6543L51.2717 25H48.7698V17.3574H50.7864ZM65.2084 17.3574V20.1533C65.2084 20.8187 65.516 21.1514 66.1312 21.1514C66.5323 21.1514 66.9037 21.1058 67.2455 21.0146C67.5918 20.9235 67.9405 20.805 68.2914 20.6592V17.3574H70.3763V25H68.2914V21.9648C67.8083 22.2201 67.3594 22.4001 66.9447 22.5049C66.53 22.6097 66.1289 22.6621 65.7416 22.6621C64.9076 22.6621 64.2627 22.4502 63.807 22.0264C63.3513 21.598 63.1234 20.9896 63.1234 20.2012V17.3574H65.2084ZM76.1689 18.6973C75.7268 18.6973 75.3805 18.8385 75.1298 19.1211C74.8792 19.3991 74.7356 19.7956 74.6991 20.3105H77.6249C77.6158 19.7956 77.4814 19.3991 77.2216 19.1211C76.9618 18.8385 76.6109 18.6973 76.1689 18.6973ZM76.4628 25.1367C75.2323 25.1367 74.2708 24.7972 73.578 24.1182C72.8853 23.4391 72.539 22.4775 72.539 21.2334C72.539 19.9528 72.858 18.9639 73.496 18.2666C74.1386 17.5648 75.025 17.2139 76.1552 17.2139C77.2353 17.2139 78.0761 17.5215 78.6777 18.1367C79.2792 18.752 79.58 19.6019 79.58 20.6865V21.6982H74.6513C74.6741 22.2907 74.8495 22.7533 75.1777 23.0859C75.5058 23.4186 75.9661 23.585 76.5585 23.585C77.0188 23.585 77.454 23.5371 77.8642 23.4414C78.2743 23.3457 78.7027 23.193 79.1493 22.9834V24.5967C78.7848 24.779 78.3951 24.9134 77.9804 25C77.5657 25.0911 77.0598 25.1367 76.4628 25.1367ZM85.9126 25.1367C85.0148 25.1367 84.3107 24.8109 83.8003 24.1592H83.6909C83.7638 24.7972 83.8003 25.1663 83.8003 25.2666V28.3633H81.7153V17.3574H83.4106L83.7046 18.3486H83.8003C84.2879 17.5921 85.0102 17.2139 85.9673 17.2139C86.8696 17.2139 87.576 17.5625 88.0864 18.2598C88.5968 18.957 88.852 19.9255 88.852 21.165C88.852 21.9808 88.7313 22.6895 88.4897 23.291C88.2527 23.8926 87.9132 24.3506 87.4712 24.665C87.0291 24.9795 86.5096 25.1367 85.9126 25.1367ZM85.2973 18.8818C84.7824 18.8818 84.4064 19.0413 84.1694 19.3604C83.9324 19.6748 83.8094 20.1966 83.8003 20.9258V21.1514C83.8003 21.9717 83.921 22.5596 84.1626 22.915C84.4087 23.2705 84.796 23.4482 85.3247 23.4482C86.2589 23.4482 86.7261 22.6781 86.7261 21.1377C86.7261 20.3857 86.6098 19.8229 86.3774 19.4492C86.1496 19.071 85.7895 18.8818 85.2973 18.8818ZM94.1797 18.6973C93.7377 18.6973 93.3913 18.8385 93.1407 19.1211C92.89 19.3991 92.7465 19.7956 92.71 20.3105H95.6358C95.6267 19.7956 95.4922 19.3991 95.2325 19.1211C94.9727 18.8385 94.6218 18.6973 94.1797 18.6973ZM94.4737 25.1367C93.2432 25.1367 92.2816 24.7972 91.5889 24.1182C90.8962 23.4391 90.5498 22.4775 90.5498 21.2334C90.5498 19.9528 90.8689 18.9639 91.5069 18.2666C92.1495 17.5648 93.0358 17.2139 94.1661 17.2139C95.2461 17.2139 96.087 17.5215 96.6885 18.1367C97.2901 18.752 97.5909 19.6019 97.5909 20.6865V21.6982H92.6621C92.6849 22.2907 92.8604 22.7533 93.1885 23.0859C93.5166 23.4186 93.9769 23.585 94.5694 23.585C95.0297 23.585 95.4649 23.5371 95.875 23.4414C96.2852 23.3457 96.7136 23.193 97.1602 22.9834V24.5967C96.7956 24.779 96.406 24.9134 95.9912 25C95.5765 25.0911 95.0707 25.1367 94.4737 25.1367ZM101.627 20.2969C102.415 20.2969 102.973 20.2331 103.301 20.1055C103.634 19.9779 103.8 19.7751 103.8 19.4971C103.8 19.251 103.68 19.0664 103.438 18.9434C103.197 18.8203 102.798 18.7588 102.242 18.7588C101.891 18.7588 101.492 18.8021 101.046 18.8887C100.603 18.9753 100.2 19.0938 99.8355 19.2441L99.2203 17.7881C99.7626 17.583 100.289 17.4372 100.799 17.3506C101.31 17.2594 101.879 17.2139 102.508 17.2139C103.461 17.2139 104.224 17.3962 104.798 17.7607C105.373 18.1253 105.66 18.6198 105.66 19.2441C105.66 20.1055 105.152 20.666 104.135 20.9258V20.9941C104.76 21.1491 105.204 21.3701 105.468 21.6572C105.737 21.9398 105.872 22.3112 105.872 22.7715C105.872 23.2363 105.721 23.6488 105.421 24.0088C105.12 24.3688 104.685 24.6468 104.115 24.8428C103.545 25.0387 102.875 25.1367 102.105 25.1367C100.829 25.1367 99.8492 24.9795 99.1656 24.665V22.9424C99.5576 23.1247 99.9859 23.2682 100.451 23.373C100.92 23.4779 101.374 23.5303 101.811 23.5303C102.49 23.5303 102.998 23.4551 103.336 23.3047C103.673 23.1497 103.841 22.931 103.841 22.6484C103.841 22.3385 103.664 22.1107 103.308 21.9648C102.953 21.8145 102.406 21.7393 101.668 21.7393H100.861V20.2969H101.627ZM118.086 22.2246C118.086 23.127 117.76 23.8379 117.108 24.3574C116.461 24.877 115.559 25.1367 114.401 25.1367C113.335 25.1367 112.391 24.9362 111.571 24.5352V22.5664C112.245 22.8672 112.815 23.0791 113.28 23.2021C113.749 23.3252 114.178 23.3867 114.565 23.3867C115.03 23.3867 115.385 23.2979 115.632 23.1201C115.882 22.9424 116.008 22.6781 116.008 22.3271C116.008 22.1312 115.953 21.958 115.843 21.8076C115.734 21.6527 115.572 21.5046 115.358 21.3633C115.148 21.222 114.718 20.9964 114.066 20.6865C113.455 20.3994 112.997 20.1237 112.692 19.8594C112.387 19.5951 112.143 19.2874 111.961 18.9365C111.778 18.5856 111.687 18.1755 111.687 17.7061C111.687 16.8219 111.986 16.127 112.583 15.6211C113.184 15.1152 114.014 14.8623 115.071 14.8623C115.591 14.8623 116.085 14.9238 116.554 15.0469C117.028 15.1699 117.523 15.3431 118.038 15.5664L117.354 17.2139C116.821 16.9951 116.379 16.8424 116.028 16.7559C115.682 16.6693 115.34 16.626 115.003 16.626C114.602 16.626 114.294 16.7194 114.08 16.9062C113.866 17.0931 113.759 17.3369 113.759 17.6377C113.759 17.8245 113.802 17.9886 113.888 18.1299C113.975 18.2666 114.112 18.401 114.299 18.5332C114.49 18.6608 114.939 18.8932 115.645 19.2305C116.579 19.6771 117.22 20.126 117.566 20.5771C117.912 21.0238 118.086 21.5729 118.086 22.2246ZM123.393 23.4756C123.757 23.4756 124.195 23.3958 124.705 23.2363V24.7881C124.186 25.0205 123.548 25.1367 122.791 25.1367C121.957 25.1367 121.349 24.9271 120.966 24.5078C120.588 24.084 120.399 23.4505 120.399 22.6074V18.9229H119.401V18.041L120.549 17.3438L121.151 15.7305H122.484V17.3574H124.623V18.9229H122.484V22.6074C122.484 22.9036 122.566 23.1224 122.73 23.2637C122.898 23.4049 123.119 23.4756 123.393 23.4756ZM129.862 18.6973C129.42 18.6973 129.074 18.8385 128.823 19.1211C128.572 19.3991 128.429 19.7956 128.392 20.3105H131.318C131.309 19.7956 131.175 19.3991 130.915 19.1211C130.655 18.8385 130.304 18.6973 129.862 18.6973ZM130.156 25.1367C128.926 25.1367 127.964 24.7972 127.271 24.1182C126.579 23.4391 126.232 22.4775 126.232 21.2334C126.232 19.9528 126.551 18.9639 127.189 18.2666C127.832 17.5648 128.718 17.2139 129.848 17.2139C130.929 17.2139 131.769 17.5215 132.371 18.1367C132.973 18.752 133.273 19.6019 133.273 20.6865V21.6982H128.345C128.367 22.2907 128.543 22.7533 128.871 23.0859C129.199 23.4186 129.659 23.585 130.252 23.585C130.712 23.585 131.147 23.5371 131.557 23.4414C131.968 23.3457 132.396 23.193 132.843 22.9834V24.5967C132.478 24.779 132.088 24.9134 131.674 25C131.259 25.0911 130.753 25.1367 130.156 25.1367ZM140.262 25L139.859 23.9609H139.804C139.453 24.403 139.091 24.7106 138.717 24.8838C138.348 25.0524 137.865 25.1367 137.268 25.1367C136.534 25.1367 135.955 24.9271 135.532 24.5078C135.112 24.0885 134.903 23.4915 134.903 22.7168C134.903 21.9056 135.185 21.3086 135.75 20.9258C136.32 20.5384 137.177 20.3242 138.321 20.2832L139.647 20.2422V19.9072C139.647 19.1325 139.25 18.7451 138.457 18.7451C137.847 18.7451 137.129 18.9297 136.304 19.2988L135.614 17.8906C136.493 17.4303 137.468 17.2002 138.539 17.2002C139.565 17.2002 140.351 17.4235 140.898 17.8701C141.445 18.3167 141.718 18.9958 141.718 19.9072V25H140.262ZM139.647 21.459L138.84 21.4863C138.234 21.5046 137.783 21.6139 137.487 21.8145C137.19 22.015 137.042 22.3203 137.042 22.7305C137.042 23.3184 137.38 23.6123 138.054 23.6123C138.537 23.6123 138.922 23.4733 139.209 23.1953C139.501 22.9173 139.647 22.5482 139.647 22.0879V21.459ZM151.154 25H149.069V20.5361C149.069 19.9847 148.976 19.5723 148.789 19.2988C148.607 19.0208 148.317 18.8818 147.921 18.8818C147.388 18.8818 147 19.0778 146.759 19.4697C146.517 19.8617 146.396 20.5065 146.396 21.4043V25H144.311V17.3574H145.904L146.185 18.335H146.301C146.506 17.984 146.802 17.7106 147.189 17.5146C147.577 17.3141 148.021 17.2139 148.522 17.2139C149.666 17.2139 150.441 17.5876 150.847 18.335H151.031C151.236 17.9795 151.537 17.7038 151.934 17.5078C152.335 17.3118 152.786 17.2139 153.287 17.2139C154.153 17.2139 154.807 17.4372 155.249 17.8838C155.696 18.3258 155.919 19.0368 155.919 20.0166V25H153.827V20.5361C153.827 19.9847 153.734 19.5723 153.547 19.2988C153.365 19.0208 153.075 18.8818 152.679 18.8818C152.168 18.8818 151.785 19.0641 151.53 19.4287C151.28 19.7933 151.154 20.3721 151.154 21.165V25Z" fill="black"/>
<path d="M172 10C173.313 10 174.614 10.2587 175.827 10.7612C177.04 11.2638 178.142 12.0003 179.071 12.9289C180 13.8575 180.736 14.9599 181.239 16.1732C181.741 17.3864 182 18.6868 182 20C182 22.6522 180.946 25.1957 179.071 27.0711C177.196 28.9464 174.652 30 172 30C167.4 30 163.55 26.92 162.36 22.73L166.19 24.31C166.45 25.6 167.6 26.58 168.97 26.58C170.53 26.58 171.8 25.31 171.8 23.75V23.62L175.2 21.19H175.28C177.36 21.19 179.05 19.5 179.05 17.42C179.05 15.34 177.36 13.65 175.28 13.65C173.2 13.65 171.5 15.34 171.5 17.42V17.47L169.13 20.93L168.97 20.92C168.38 20.92 167.83 21.1 167.38 21.41L162 19.2C162.43 14.05 166.73 10 172 10ZM168.28 25.17C169.08 25.5 170 25.13 170.33 24.33C170.66 23.53 170.28 22.62 169.5 22.29L168.22 21.76C168.71 21.58 169.26 21.57 169.78 21.79C170.31 22 170.72 22.41 170.93 22.94C171.15 23.46 171.15 24.04 170.93 24.56C170.5 25.64 169.23 26.16 168.15 25.71C167.65 25.5 167.27 25.12 167.06 24.67L168.28 25.17ZM177.8 17.42C177.8 18.81 176.67 19.94 175.28 19.94C173.9 19.94 172.77 18.81 172.77 17.42C172.769 17.09 172.833 16.763 172.958 16.4579C173.084 16.1528 173.269 15.8756 173.502 15.6422C173.736 15.4089 174.013 15.224 174.318 15.0984C174.623 14.9727 174.95 14.9087 175.28 14.91C176.67 14.91 177.8 16.04 177.8 17.42ZM173.4 17.42C173.4 18.46 174.24 19.31 175.29 19.31C176.33 19.31 177.17 18.46 177.17 17.42C177.17 16.38 176.33 15.53 175.29 15.53C174.24 15.53 173.4 16.38 173.4 17.42Z" fill="black"/>
<defs>
<linearGradient id="paint0_linear" x1="95" y1="0" x2="95" y2="40" gradientUnits="userSpaceOnUse">
<stop stop-color="#F89D00"/>
<stop offset="0.359375" stop-color="#FE9700"/>
<stop offset="1" stop-color="#FF9400"/>
</linearGradient>
</defs>
</svg>
