<svg width="50" height="20" viewBox="0 0 50 20" fill="none" xmlns="http://www.w3.org/2000/svg">
<rect width="50" height="20" rx="5" fill="url(#paint0_linear)"/>
<path d="M5.48133 6.43359H8.14734C9.36219 6.43359 10.243 6.60742 10.7899 6.95508C11.3407 7.29883 11.6161 7.84766 11.6161 8.60156C11.6161 9.11328 11.495 9.5332 11.2528 9.86133C11.0145 10.1895 10.6962 10.3867 10.2977 10.4531V10.5117C10.8407 10.6328 11.2313 10.8594 11.4696 11.1914C11.7118 11.5234 11.8329 11.9648 11.8329 12.5156C11.8329 13.2969 11.5497 13.9062 10.9833 14.3438C10.4208 14.7812 9.65516 15 8.68641 15H5.48133V6.43359ZM7.29774 9.82617H8.35242C8.84461 9.82617 9.20008 9.75 9.41883 9.59766C9.64149 9.44531 9.75281 9.19336 9.75281 8.8418C9.75281 8.51367 9.63172 8.2793 9.38953 8.13867C9.15125 7.99414 8.77234 7.92188 8.25281 7.92188H7.29774V9.82617ZM7.29774 11.2676V13.5H8.48133C8.98133 13.5 9.35047 13.4043 9.58875 13.2129C9.82703 13.0215 9.94617 12.7285 9.94617 12.334C9.94617 11.623 9.43836 11.2676 8.42274 11.2676H7.29774ZM15.267 11.7129C15.267 12.3613 15.3725 12.8516 15.5834 13.1836C15.7983 13.5156 16.1459 13.6816 16.6264 13.6816C17.103 13.6816 17.4448 13.5176 17.6518 13.1895C17.8627 12.8574 17.9682 12.3652 17.9682 11.7129C17.9682 11.0645 17.8627 10.5781 17.6518 10.2539C17.4409 9.92969 17.0952 9.76758 16.6147 9.76758C16.1381 9.76758 15.7944 9.92969 15.5834 10.2539C15.3725 10.5742 15.267 11.0605 15.267 11.7129ZM19.7963 11.7129C19.7963 12.7793 19.5151 13.6133 18.9526 14.2148C18.3901 14.8164 17.6069 15.1172 16.603 15.1172C15.9741 15.1172 15.4194 14.9805 14.9389 14.707C14.4584 14.4297 14.0893 14.0332 13.8315 13.5176C13.5737 13.002 13.4448 12.4004 13.4448 11.7129C13.4448 10.6426 13.7241 9.81055 14.2827 9.2168C14.8413 8.62305 15.6264 8.32617 16.6381 8.32617C17.267 8.32617 17.8217 8.46289 18.3022 8.73633C18.7827 9.00977 19.1518 9.40234 19.4096 9.91406C19.6674 10.4258 19.7963 11.0254 19.7963 11.7129ZM23.4414 8.44922V11.0391C23.4414 11.3125 23.3965 11.9805 23.3066 13.043L26.3301 8.44922H28.4805V15H26.752V12.3867C26.752 11.9219 26.791 11.2656 26.8691 10.418L23.8574 15H21.7129V8.44922H23.4414ZM27.9531 5.63086C27.8789 6.36133 27.6035 6.89453 27.127 7.23047C26.6504 7.5625 25.9629 7.72852 25.0645 7.72852C24.1387 7.72852 23.4531 7.56836 23.0078 7.24805C22.5664 6.92773 22.3184 6.38867 22.2637 5.63086H23.8633C23.8906 6.0332 23.9902 6.31641 24.1621 6.48047C24.3379 6.64062 24.6504 6.7207 25.0996 6.7207C25.4941 6.7207 25.7871 6.63281 25.9785 6.45703C26.1738 6.27734 26.293 6.00195 26.3359 5.63086H27.9531ZM36.2213 8.44922V9.79102H34.0767V15H32.2896V9.79102H30.1392V8.44922H36.2213ZM39.6144 8.44922V11.0391C39.6144 11.3125 39.5695 11.9805 39.4796 13.043L42.503 8.44922H44.6534V15H42.9249V12.3867C42.9249 11.9219 42.964 11.2656 43.0421 10.418L40.0304 15H37.8859V8.44922H39.6144Z" fill="black"/>
<defs>
<linearGradient id="paint0_linear" x1="25" y1="0" x2="25" y2="20" gradientUnits="userSpaceOnUse">
<stop stop-color="#F89D00"/>
<stop offset="0.359375" stop-color="#FE9700"/>
<stop offset="1" stop-color="#FF9400"/>
</linearGradient>
</defs>
</svg>
