<svg width="134" height="53" viewBox="0 0 134 53" fill="none" xmlns="http://www.w3.org/2000/svg">
<path d="M8.07391 24.9415L5.80362 24.3819C4.89231 24.1741 4.46063 23.7904 4.46063 23.2787C4.46063 22.5433 5.06818 22.1756 6.33122 22.1756C7.89804 22.1756 9.32096 22.4953 10.616 23.1508L11.5913 19.4896C10.0884 18.6582 8.32971 18.2266 6.33122 18.2266C4.49261 18.2266 3.00573 18.6582 1.80663 19.5695C0.60754 20.4809 0 21.7599 0 23.4226C0 25.7249 1.75867 27.2757 4.28476 27.9472L6.55505 28.5388C7.46637 28.7466 7.89804 29.0984 7.89804 29.6419C7.89804 30.4253 6.98673 30.7771 5.97949 30.7771C4.2368 30.7771 2.66999 30.4254 1.27903 29.7379L0.287781 33.4471C1.99849 34.2944 3.90106 34.7261 5.99548 34.7261C9.84857 34.7261 12.3906 32.9994 12.3906 29.4981C12.3587 27.1958 10.6 25.613 8.07391 24.9415Z" fill="white"/>
<path d="M22.9748 26.4281L29.5938 34.0223V34.2781H24.1099L18.8339 27.6751V34.2781H14.2773V13.7656H18.8339V25.2929L23.998 18.6419H29.274V18.8978L22.9748 26.4281Z" fill="white"/>
<path d="M31.1283 17.0114C30.0731 16.0521 30.0731 14.2455 31.1283 13.2702C32.1515 12.311 33.9582 12.311 35.0134 13.2702C36.0366 14.2295 36.0366 16.0361 35.0134 17.0114C33.9582 17.9707 32.1515 17.9707 31.1283 17.0114ZM30.7766 34.2784V18.6422H35.3331V34.2784H30.7766Z" fill="white"/>
<path d="M38.0029 34.2786V18.6424H42.5595V20.5449C43.5188 18.9941 45.0376 18.2427 47.1161 18.2427C48.7148 18.2427 50.0419 18.7383 51.0491 19.6976C52.0723 20.6888 52.5679 21.9679 52.5679 23.5187V34.2946H47.9794V25.1335C47.9794 23.3588 47.1001 22.3036 45.3894 22.3036C43.6307 22.3036 42.5595 23.4068 42.5595 25.1335V34.2946H38.0029V34.2786Z" fill="white"/>
<path d="M69.5792 20.6564C68.2682 19.0736 66.5415 18.2902 64.3831 18.2902C62.2247 18.2902 60.6419 19.0416 59.6507 20.5445V20.4966V13.7656H55.0941V20.4966H55.0781V34.2781H55.0941H59.6507V32.4076C60.61 33.8944 62.1928 34.6299 64.3831 34.6299C66.5415 34.6299 68.2682 33.8465 69.5792 32.2637C70.8902 30.7128 71.5297 28.7623 71.5297 26.46C71.5297 24.1578 70.9062 22.2392 69.5792 20.6564ZM63.2799 30.521C61.1535 30.7128 59.7626 28.9382 59.6507 28.7943C59.6667 27.0836 59.6667 25.3569 59.6827 23.6462C60.1623 23.2784 61.4893 22.3192 63.2799 22.4151C63.7276 22.4311 64.4471 22.4791 65.1985 22.9427C66.4136 23.6941 67.0211 25.181 66.9572 26.476C66.8772 28.3786 65.3744 30.3451 63.2799 30.521Z" fill="white"/>
<path d="M131.853 20.6564C130.542 19.0736 128.815 18.2902 126.657 18.2902C124.498 18.2902 122.915 19.0416 121.924 20.5445V20.4966V13.7656H117.368V20.4966H117.352V34.2781H117.368H121.924V32.4076C122.883 33.8944 124.466 34.6299 126.657 34.6299C128.815 34.6299 130.542 33.8465 131.853 32.2637C133.164 30.7128 133.803 28.7623 133.803 26.46C133.803 24.1578 133.164 22.2392 131.853 20.6564ZM125.537 30.521C123.411 30.7128 122.02 28.9382 121.908 28.7943C121.924 27.0836 121.924 25.3569 121.94 23.6462C122.42 23.2784 123.747 22.3192 125.537 22.4151C125.985 22.4311 126.705 22.4791 127.456 22.9427C128.671 23.6941 129.279 25.181 129.215 26.476C129.135 28.3786 127.632 30.3451 125.537 30.521Z" fill="white"/>
<path d="M91.5947 34.2786V18.6424H96.1513V20.5449C96.9986 19.122 98.7253 18.2427 100.58 18.2427C102.738 18.2427 104.193 19.122 104.961 20.8967C105.888 19.2659 107.886 18.2427 109.885 18.2427C112.955 18.2427 114.729 20.3211 114.729 23.5507V34.2946H110.173V25.1335C110.173 23.4068 109.421 22.3036 107.902 22.3036C106.384 22.3036 105.456 23.5027 105.456 25.1335V34.2946H100.868V25.1335C100.868 23.4068 100.116 22.3036 98.5974 22.3036C97.0786 22.3036 96.1513 23.5027 96.1513 25.1335V34.2946H91.5947V34.2786Z" fill="white"/>
<path d="M87.2778 20.5125C85.727 18.9936 83.7125 18.2422 81.2344 18.2422C78.7882 18.2422 76.7737 18.9936 75.2229 20.5125C73.6721 22.0313 72.8887 24.0138 72.8887 26.46C72.8887 28.9061 73.6721 30.8886 75.2229 32.4075C76.7737 33.9583 78.7882 34.7098 81.2344 34.7098C83.7125 34.7098 85.727 33.9583 87.2778 32.4075C88.8286 30.8886 89.5801 28.9061 89.5801 26.46C89.5801 24.0138 88.8127 22.0313 87.2778 20.5125Z" fill="url(#paint0_linear)"/>
<path d="M81.2507 4.54057C87.3421 4.54057 92.8419 7.0187 96.8229 11.0317L100.036 7.81809C95.2401 2.98974 88.5891 0 81.2507 0C73.9442 0 67.3252 2.95776 62.5288 7.73815L65.7424 10.9517C69.7074 6.98673 75.1912 4.54057 81.2507 4.54057Z" fill="url(#paint1_linear)"/>
<path d="M96.7589 41.9683C92.7939 45.9333 87.31 48.3954 81.2506 48.3954C75.2231 48.3954 69.7712 45.9652 65.8222 42.0482L62.5767 45.2938C64.5112 47.1803 68.0925 50.1701 73.3845 51.8168C76.5661 52.8081 79.364 52.9999 81.2666 52.9999C88.589 52.9999 95.224 50.0262 100.02 45.2138L96.7589 41.9683Z" fill="url(#paint2_linear)"/>
<path d="M81.2508 13.6537C84.7841 13.6537 87.9977 15.0926 90.3159 17.4109L93.5455 14.1813C90.3959 11.0317 86.0471 9.09717 81.2508 9.09717C76.4544 9.09717 72.1057 11.0477 68.9561 14.1813L72.1856 17.4109C74.5039 15.0767 77.7174 13.6537 81.2508 13.6537Z" fill="url(#paint3_linear)"/>
<path d="M90.3159 35.5254C87.9977 37.8436 84.8001 39.2826 81.2508 39.2826C77.7174 39.2826 74.5039 37.8436 72.1856 35.5254L68.9561 38.7549C72.1057 41.9046 76.4544 43.8391 81.2508 43.8391C86.0471 43.8391 90.3959 41.8886 93.5455 38.7549L90.3159 35.5254Z" fill="url(#paint4_linear)"/>
<defs>
<linearGradient id="paint0_linear" x1="81.2344" y1="18.2422" x2="81.2344" y2="34.7098" gradientUnits="userSpaceOnUse">
<stop stop-color="#F89D00"/>
<stop offset="0.359375" stop-color="#FE9700"/>
<stop offset="1" stop-color="#FF9400"/>
</linearGradient>
<linearGradient id="paint1_linear" x1="81.2827" y1="0" x2="81.2827" y2="11.0317" gradientUnits="userSpaceOnUse">
<stop stop-color="#F89D00"/>
<stop offset="0.359375" stop-color="#FE9700"/>
<stop offset="1" stop-color="#FF9400"/>
</linearGradient>
<linearGradient id="paint2_linear" x1="81.2985" y1="41.9683" x2="81.2985" y2="52.9999" gradientUnits="userSpaceOnUse">
<stop stop-color="#F89D00"/>
<stop offset="0.359375" stop-color="#FE9700"/>
<stop offset="1" stop-color="#FF9400"/>
</linearGradient>
<linearGradient id="paint3_linear" x1="81.2508" y1="9.09717" x2="81.2508" y2="17.4109" gradientUnits="userSpaceOnUse">
<stop stop-color="#F89D00"/>
<stop offset="0.359375" stop-color="#FE9700"/>
<stop offset="1" stop-color="#FF9400"/>
</linearGradient>
<linearGradient id="paint4_linear" x1="81.2508" y1="35.5254" x2="81.2508" y2="43.8391" gradientUnits="userSpaceOnUse">
<stop stop-color="#F89D00"/>
<stop offset="0.359375" stop-color="#FE9700"/>
<stop offset="1" stop-color="#FF9400"/>
</linearGradient>
</defs>
</svg>
