<svg width="61" height="50" viewBox="0 0 61 50" fill="none" xmlns="http://www.w3.org/2000/svg">
<path d="M15.0748 43.7293V41.2376C15.0748 40.2825 14.4934 39.6596 13.4967 39.6596C12.9984 39.6596 12.4585 39.8257 12.0847 40.3655C11.794 39.9087 11.3788 39.6596 10.7558 39.6596C10.3405 39.6596 9.92527 39.7842 9.59304 40.241V39.7426H8.72095V43.7293H9.59304V41.5283C9.59304 40.8223 9.96679 40.4901 10.5482 40.4901C11.1296 40.4901 11.4203 40.8639 11.4203 41.5283V43.7293H12.2924V41.5283C12.2924 40.8223 12.7077 40.4901 13.2475 40.4901C13.8289 40.4901 14.1196 40.8639 14.1196 41.5283V43.7293H15.0748ZM27.99 39.7426H26.5781V38.5383H25.706V39.7426H24.917V40.5317H25.706V42.3589C25.706 43.2725 26.0797 43.8124 27.0764 43.8124C27.4502 43.8124 27.8655 43.6878 28.1562 43.5217L27.907 42.7742C27.6578 42.9403 27.3671 42.9818 27.1595 42.9818C26.7442 42.9818 26.5781 42.7327 26.5781 42.3174V40.5317H27.99V39.7426ZM35.3821 39.6596C34.8837 39.6596 34.5515 39.9087 34.3439 40.241V39.7426H33.4718V43.7293H34.3439V41.4868C34.3439 40.8224 34.6346 40.4486 35.1744 40.4486C35.3405 40.4486 35.5482 40.4901 35.7143 40.5317L35.9635 39.7011C35.7974 39.6596 35.5482 39.6596 35.3821 39.6596ZM24.211 40.0748C23.7957 39.7841 23.2143 39.6596 22.5914 39.6596C21.5947 39.6596 20.9302 40.1579 20.9302 40.9469C20.9302 41.6114 21.4286 41.9851 22.3007 42.1097L22.716 42.1513C23.1728 42.2343 23.4219 42.3589 23.4219 42.5665C23.4219 42.8572 23.0897 43.0649 22.5083 43.0649C21.9269 43.0649 21.4701 42.8572 21.1794 42.6496L20.7641 43.314C21.2209 43.6463 21.8439 43.8124 22.4668 43.8124C23.6296 43.8124 24.294 43.2725 24.294 42.525C24.294 41.819 23.7542 41.4453 22.9236 41.3207L22.5083 41.2792C22.1346 41.2376 21.8439 41.1546 21.8439 40.9054C21.8439 40.6147 22.1346 40.4486 22.5914 40.4486C23.0897 40.4486 23.5881 40.6562 23.8372 40.7808L24.211 40.0748ZM47.3837 39.6596C46.8854 39.6596 46.5532 39.9087 46.3455 40.241V39.7426H45.4734V43.7293H46.3455V41.4868C46.3455 40.8224 46.6362 40.4486 47.1761 40.4486C47.3422 40.4486 47.5498 40.4901 47.716 40.5317L47.9651 39.7011C47.799 39.6596 47.5499 39.6596 47.3837 39.6596ZM36.2542 41.736C36.2542 42.9403 37.0847 43.8124 38.3721 43.8124C38.9535 43.8124 39.3688 43.6878 39.7841 43.3556L39.3688 42.6496C39.0366 42.8988 38.7043 43.0233 38.3306 43.0233C37.6246 43.0233 37.1263 42.525 37.1263 41.736C37.1263 40.9885 37.6246 40.4901 38.3306 40.4486C38.7043 40.4486 39.0366 40.5732 39.3688 40.8224L39.7841 40.1164C39.3688 39.7841 38.9535 39.6596 38.3721 39.6596C37.0847 39.6596 36.2542 40.5317 36.2542 41.736ZM44.3106 41.736V39.7426H43.4386V40.241C43.1479 39.8672 42.7326 39.6596 42.1927 39.6596C41.0714 39.6596 40.1993 40.5317 40.1993 41.736C40.1993 42.9403 41.0714 43.8124 42.1927 43.8124C42.7741 43.8124 43.1894 43.6047 43.4386 43.231V43.7293H44.3106V41.736ZM41.113 41.736C41.113 41.03 41.5698 40.4486 42.3173 40.4486C43.0233 40.4486 43.5216 40.9885 43.5216 41.736C43.5216 42.4419 43.0233 43.0233 42.3173 43.0233C41.5698 42.9818 41.113 42.4419 41.113 41.736ZM30.6894 39.6596C29.5266 39.6596 28.696 40.4901 28.696 41.736C28.696 42.9818 29.5266 43.8124 30.7309 43.8124C31.3123 43.8124 31.8937 43.6463 32.3505 43.2725L31.9352 42.6496C31.603 42.8988 31.1877 43.0649 30.7724 43.0649C30.2326 43.0649 29.6927 42.8157 29.5681 42.1097H32.5166V41.7775C32.5581 40.4901 31.8106 39.6596 30.6894 39.6596ZM30.6894 40.4071C31.2292 40.4071 31.603 40.7393 31.6861 41.3622H29.6096C29.6927 40.8224 30.0665 40.4071 30.6894 40.4071ZM52.3256 41.736V38.1646H51.4535V40.241C51.1628 39.8672 50.7475 39.6596 50.2077 39.6596C49.0864 39.6596 48.2143 40.5317 48.2143 41.736C48.2143 42.9403 49.0864 43.8124 50.2077 43.8124C50.789 43.8124 51.2043 43.6047 51.4535 43.231V43.7293H52.3256V41.736ZM49.1279 41.736C49.1279 41.03 49.5847 40.4486 50.3322 40.4486C51.0382 40.4486 51.5366 40.9885 51.5366 41.736C51.5366 42.4419 51.0382 43.0233 50.3322 43.0233C49.5847 42.9818 49.1279 42.4419 49.1279 41.736ZM19.9751 41.736V39.7426H19.103V40.241C18.8123 39.8672 18.397 39.6596 17.8572 39.6596C16.7359 39.6596 15.8638 40.5317 15.8638 41.736C15.8638 42.9403 16.7359 43.8124 17.8572 43.8124C18.4386 43.8124 18.8538 43.6047 19.103 43.231V43.7293H19.9751V41.736ZM16.7359 41.736C16.7359 41.03 17.1927 40.4486 17.9402 40.4486C18.6462 40.4486 19.1445 40.9885 19.1445 41.736C19.1445 42.4419 18.6462 43.0233 17.9402 43.0233C17.1927 42.9818 16.7359 42.4419 16.7359 41.736Z" fill="white"/>
<path d="M37.0016 9.46875H23.9202V32.9737H37.0016V9.46875Z" fill="#FF5F00"/>
<path d="M24.7508 21.2207C24.7508 16.4449 26.9933 12.2091 30.4402 9.46819C27.907 7.47483 24.7093 6.27051 21.2209 6.27051C12.9568 6.27051 6.27075 12.9566 6.27075 21.2207C6.27075 29.4848 12.9568 36.1708 21.2209 36.1708C24.7093 36.1708 27.907 34.9665 30.4402 32.9732C26.9933 30.2738 24.7508 25.9964 24.7508 21.2207Z" fill="#EB001B"/>
<path d="M54.6514 21.2207C54.6514 29.4848 47.9653 36.1708 39.7012 36.1708C36.2128 36.1708 33.0152 34.9665 30.4819 32.9732C33.9703 30.2323 36.1713 25.9964 36.1713 21.2207C36.1713 16.4449 33.9288 12.2091 30.4819 9.46819C33.0152 7.47483 36.2128 6.27051 39.7012 6.27051C47.9653 6.27051 54.6514 12.9981 54.6514 21.2207Z" fill="#F79E1B"/>
</svg>
