<svg width="70" height="13" viewBox="0 0 70 13" fill="none" xmlns="http://www.w3.org/2000/svg">
<path d="M38.0573 6.28726V8.2023C38.0573 8.27342 37.9991 8.33493 37.9242 8.33493H36.4123C35.1912 8.31525 34.701 7.75201 34.6823 6.52754C34.701 5.34103 35.1383 4.74898 36.4195 4.7312V4.73389H39.6061V3.42291H36.4195C34.1493 3.43445 33.2142 4.3999 33.169 6.4519L33.1671 6.61288L33.169 6.61558C33.2175 8.60703 34.1508 9.58497 36.3556 9.61765V9.61919H38.6887C39.2274 9.61919 39.6138 9.16938 39.6138 8.69506V6.28697H38.0573V6.28726ZM50.5495 9.61601V7.06471H54.4272V5.79891H50.5495V3.88723C50.5495 3.81419 50.6086 3.75364 50.6831 3.75364H54.5171V2.44314H49.9186C49.3803 2.44314 48.993 2.89199 48.993 3.36726V9.61601H50.5495ZM28.3114 8.31225C28.2355 8.31225 28.1778 8.25122 28.1778 8.17913V7.07192H32.054V5.80708H28.1778V4.86373C28.1778 4.79165 28.2355 4.73014 28.3114 4.73014H32.1458V3.41916H27.5469C27.0077 3.41916 26.6203 3.86993 26.6203 4.34425V8.69814C26.6203 9.1739 27.0077 9.6237 27.5469 9.6237H32.1458V8.31225H28.3114ZM24.0822 2.2959C23.3541 2.2959 22.8894 2.68419 22.5449 3.46511L20.5179 8.13425L18.4894 3.46511C18.1444 2.68419 17.6797 2.2959 16.9511 2.2959C16.2697 2.2959 15.5657 2.78367 15.5657 3.84331V9.62399H17.1193V4.00141L19.1598 8.63115C19.4342 9.27799 19.8749 9.68406 20.5164 9.68502H20.518C21.159 9.68387 21.6007 9.27799 21.8746 8.63115L23.9146 4.00141V9.62399H25.4682V3.84331C25.4682 2.78367 24.7633 2.2959 24.0823 2.2959H24.0822ZM43.1541 7.07201L44.1109 4.81962C44.1411 4.74898 44.1959 4.73023 44.2373 4.73023H44.238C44.2794 4.73023 44.3351 4.749 44.3644 4.81962L45.3227 7.07201H43.1539H43.1541ZM45.516 4.11175C45.2551 3.54661 44.7366 3.27125 44.2382 3.27125H44.2375C43.7386 3.27125 43.2201 3.54661 42.9611 4.11175L40.4184 9.6238H42.0725L42.6266 8.31379H45.8497L46.4043 9.6238H48.0584L45.5162 4.11175H45.516ZM68.4443 3.41931V7.56608L65.7729 3.92101C65.5475 3.63748 65.2967 3.41931 64.781 3.41931C64.3077 3.41931 63.7228 3.79366 63.7228 4.50442V9.62769H65.2789V5.48188L67.9383 9.13896C68.1699 9.45421 68.4093 9.62769 68.9417 9.62769C69.4156 9.62769 69.9999 9.28793 69.9999 8.5421V3.41931H68.4443ZM59.1208 8.39976C57.532 8.39976 57.075 7.81635 57.075 6.5174V6.51067C57.075 5.25015 57.5109 4.63071 59.1208 4.63071C60.7326 4.63071 61.1675 5.25015 61.1675 6.51067V6.5174C61.1675 7.81635 60.7095 8.39976 59.1208 8.39976ZM62.6822 6.51067C62.6818 4.33853 61.8148 3.3255 59.1208 3.3255C56.4286 3.3255 55.5612 4.33853 55.5598 6.51067V6.51501C55.5598 8.65351 56.4512 9.6848 59.1208 9.6848C61.7912 9.6848 62.6822 8.65351 62.6822 6.51501V6.51067Z" fill="#00985F"/>
<path d="M5.03101 5.1324C4.60138 5.1324 4.25249 4.784 4.25249 4.35485C4.25249 3.92475 4.60138 3.57634 5.03101 3.57634C5.46063 3.57634 5.80856 3.92475 5.80856 4.35485C5.80856 4.784 5.46063 5.1324 5.03101 5.1324ZM6.22424 0C2.78582 0 0 2.7863 0 6.22424C0 9.20757 2.09958 11.7007 4.90077 12.3077V6.7221L4.90116 6.72172C4.90742 6.45212 5.12222 6.23491 5.38941 6.22482V6.22443H5.64843H6.17561C6.21213 6.22443 6.24193 6.1956 6.24385 6.15956L6.24423 0.0011149L6.22424 0ZM10.5135 9.61971C10.0843 9.61971 9.73542 9.2713 9.73542 8.8412C9.73542 8.41254 10.0843 8.06413 10.5135 8.06413C10.9426 8.06413 11.2915 8.41254 11.2915 8.8412C11.2915 9.2713 10.9426 9.61971 10.5135 9.61971ZM8.68972 9.61971C8.26058 9.61971 7.91217 9.2713 7.91217 8.8412C7.91217 8.41254 8.26058 8.06413 8.68972 8.06413C9.11934 8.06413 9.46775 8.41254 9.46775 8.8412C9.46775 9.2713 9.11934 9.61971 8.68972 9.61971ZM6.86502 9.61971C6.43588 9.61971 6.08651 9.2713 6.08651 8.8412C6.08651 8.41254 6.43588 8.06413 6.86502 8.06413C7.29513 8.06413 7.64353 8.41254 7.64353 8.8412C7.64353 9.2713 7.29513 9.61971 6.86502 9.61971ZM6.99237 0.0469106V6.22406V6.46434V6.46868L6.99083 6.47022C6.98853 6.74799 6.76209 6.97241 6.48336 6.97241H6.24404H5.71734C5.6789 6.97241 5.64814 7.00316 5.64814 7.04113V12.4225C5.83797 12.4398 6.02923 12.4494 6.22386 12.4494C9.6618 12.4494 12.4481 9.66211 12.4481 6.22417C12.4481 3.04718 10.0674 0.425709 6.99228 0.0470259" fill="#00985F"/>
</svg>
