<svg width="60" height="18" viewBox="0 0 60 18" fill="none" xmlns="http://www.w3.org/2000/svg">
<path fill-rule="evenodd" clip-rule="evenodd" d="M53.8145 0H42.3093C42.9279 3.83506 46.6392 7.42269 50.7217 7.42269H59.8764C60.0001 7.05155 60.0001 6.55671 60.0001 6.18557C60.0001 2.72165 57.2784 0 53.8145 0Z" fill="url(#paint0_linear)"/>
<path fill-rule="evenodd" clip-rule="evenodd" d="M43.2991 8.04102V17.3194H48.8661V12.3709H53.8145C56.5362 12.3709 58.8867 10.5152 59.629 8.04102H43.2991Z" fill="#4DB45F"/>
<path fill-rule="evenodd" clip-rule="evenodd" d="M23.5051 0V17.3196H28.4536C28.4536 17.3196 29.6907 17.3196 30.3093 16.0825C33.6495 9.40207 34.6392 7.42269 34.6392 7.42269H35.2577V17.3196H40.8247V0H35.8763C35.8763 0 34.6392 0.123711 34.0206 1.23711C31.1752 6.92784 29.6907 9.89692 29.6907 9.89692H29.0721V0H23.5051Z" fill="#4DB45F"/>
<path fill-rule="evenodd" clip-rule="evenodd" d="M0 17.3196V0H5.56702C5.56702 0 7.17527 0 8.04125 2.47423C10.2681 9.03094 10.5155 9.89692 10.5155 9.89692C10.5155 9.89692 11.0103 8.28867 12.9897 2.47423C13.8557 0 15.4639 0 15.4639 0H21.0309V17.3196H15.4639V8.04125H14.8454L11.7526 17.3196H9.27836L6.18557 8.04125H5.56702V17.3196H0Z" fill="#4DB45F"/>
<defs>
<linearGradient id="paint0_linear" x1="42.2774" y1="3.71134" x2="60.0001" y2="3.71134" gradientUnits="userSpaceOnUse">
<stop stop-color="#00B4E6"/>
<stop offset="1" stop-color="#088CCB"/>
</linearGradient>
</defs>
</svg>
