<svg width="60" height="15" viewBox="0 0 60 15" fill="none" xmlns="http://www.w3.org/2000/svg">
<path fill-rule="evenodd" clip-rule="evenodd" d="M5.33303 0C4.21988 0 2.90011 1.07017 1.8115 2.86933C0.676876 4.73265 0 7.03939 0 9.04259C0 11.9752 1.64571 14.9326 5.33333 14.9326C9.01653 14.9326 10.6667 11.9752 10.6667 9.04259C10.6667 7.03939 9.9901 4.73265 8.86096 2.86933C7.76214 1.07017 6.44251 0 5.33303 0ZM34.1317 4.39985H37.865V14.1329H41.865V4.39985H45.5968V0.799542H34.1317V4.39939V4.39985ZM54.1301 4.39985H59.9968V0.799542H54.1301C48.7404 0.799542 45.8619 3.47931 45.8619 7.46575C45.8619 11.4522 48.7404 14.1329 54.1301 14.1329H59.9968V10.5327H54.1301C51.6357 10.5327 49.996 9.64114 49.996 7.46621C49.996 5.29128 51.6357 4.39985 54.1301 4.39985ZM25.996 0.799542L23.8642 8.75764L21.7324 0.799542H14.6665V14.1329H18.665V3.28792L21.5709 14.1329H26.1576L29.065 3.28137V14.1329H33.065V0.799542H25.996Z" fill="#E30613"/>
</svg>
