<svg width="38" height="38" viewBox="0 0 38 38" fill="none" xmlns="http://www.w3.org/2000/svg">
<rect x="0.75" y="0.75" width="36.5" height="36.5" rx="18.25" fill="#111111" stroke="#4A4A4A" stroke-width="1.5"/>
<mask id="mask0" mask-type="alpha" maskUnits="userSpaceOnUse" x="0" y="0" width="38" height="38">
<rect width="38" height="38" rx="19" fill="#111111"/>
</mask>
<g mask="url(#mask0)">
<path d="M28.7317 29.4866C28.8795 28.8667 28.4856 28.098 28.1163 27.6517C27.8455 27.3542 27.5501 27.1062 27.2054 26.883C27.4516 26.4367 27.6486 26.0152 27.4024 25.3705C27.1316 24.5522 26.5161 24.3291 25.8022 23.9075C25.236 23.5852 24.1282 23.2628 23.2419 23.5108C24.0297 22.5934 25.4083 20.8081 25.5806 19.2211C25.5806 19.2211 26.6392 19.7914 26.8115 17.8326C26.9839 15.8737 25.8268 16.2704 25.8268 16.2704C25.8268 16.2704 26.0238 12.1791 24.6452 10.617C24.1282 10.0467 23.6358 9.52599 23.0942 9.07966C23.8081 8.01344 24.0051 6.30254 23.2666 5.45948C22.7496 4.86438 21.8879 5.03795 21.1986 5.28591C21.0017 5.3603 20.8048 5.45948 20.6324 5.58346C20.3616 5.18673 19.9431 4.93877 19.2538 5.01315C18.5399 5.08754 17.9491 5.45948 17.5059 5.98019C16.8659 5.68264 16.152 5.88101 15.6596 6.87284C15.3888 7.41835 15.1672 8.75732 15.4873 9.4516C15.0934 9.82354 14.7241 10.2203 14.3302 10.6418C12.9516 12.2039 13.1486 16.2952 13.1486 16.2952C13.1486 16.2952 12.0161 15.8737 12.1638 17.8574C12.3362 19.8162 13.3947 19.2459 13.3947 19.2459C13.5671 20.8081 14.9457 22.6182 15.7334 23.5356C14.8472 23.2876 13.5424 23.5852 12.9762 23.9323C12.2623 24.3539 11.8684 24.577 11.573 25.3953C11.3514 26.04 11.5484 26.4615 11.7699 26.9078C11.4253 27.131 11.1299 27.3542 10.8591 27.6765C10.4898 28.1228 10.0959 28.8915 10.2436 29.5114C9.01273 29.9081 8.05263 30.3792 7.191 31.9662C5.93548 34.2474 5 39.7768 5 39.7768L19.3277 40H19.5H19.6723L34 39.7768C34 39.7768 33.0645 34.2474 31.809 31.9662C30.9227 30.3792 29.938 29.8833 28.7317 29.4866Z" fill="#4A4A4A"/>
</g>
</svg>
