<svg width="18" height="15" viewBox="0 0 18 15" fill="none" xmlns="http://www.w3.org/2000/svg">
<path fill-rule="evenodd" clip-rule="evenodd" d="M6.32514 7.37498C7.97787 7.37498 9.32232 5.83302 9.32232 3.93749C9.32232 2.04196 7.97787 0.5 6.32514 0.5C4.67241 0.5 3.32796 2.04196 3.32796 3.93749C3.32796 5.83302 4.67241 7.37498 6.32514 7.37498ZM0.330566 12.5312C0.330566 10.2429 4.3211 9.09375 6.32493 9.09375C8.32875 9.09375 12.3193 10.2429 12.3193 12.5312V14.25H0.330566V12.5312ZM6.32549 11.0578C4.79265 11.0578 3.05428 11.7158 2.33496 12.2855H10.316C9.5967 11.7158 7.85834 11.0578 6.32549 11.0578ZM7.60954 3.93724C7.60954 3.12206 7.03579 2.46403 6.32503 2.46403C5.61427 2.46403 5.04053 3.12206 5.04053 3.93724C5.04053 4.75241 5.61427 5.41044 6.32503 5.41044C7.03579 5.41044 7.60954 4.75241 7.60954 3.93724ZM12.3535 9.1528C13.3469 9.97779 14.0319 11.0778 14.0319 12.5314V14.2501H17.4573V12.5314C17.4573 10.5474 14.4601 9.41798 12.3535 9.1528ZM14.4602 3.93749C14.4602 5.83302 13.1157 7.37498 11.463 7.37498C11.0005 7.37498 10.5724 7.2473 10.1785 7.03123C10.718 6.15712 11.0348 5.08659 11.0348 3.93749C11.0348 2.78838 10.718 1.71785 10.1785 0.843749C10.5724 0.627678 11.0005 0.5 11.463 0.5C13.1157 0.5 14.4602 2.04196 14.4602 3.93749Z" fill="#606060"/>
</svg>
