<svg width="11" height="11" viewBox="0 0 11 11" fill="none" xmlns="http://www.w3.org/2000/svg">
<path d="M9.79051 5.52623C9.51415 5.22087 9.12087 5.05275 8.69848 5.05275C8.34929 5.05275 8.07036 5.14712 7.8686 5.259V2.27403H5.41314C5.53354 2.04054 5.59326 1.78178 5.59326 1.49266C5.59326 1.07028 5.4251 0.685426 5.11973 0.409016C4.82839 0.145266 4.43481 0 4.01142 0C3.58803 0 3.19445 0.145266 2.90311 0.408965C2.59775 0.685375 2.42958 1.07023 2.42958 1.49261C2.42958 1.81921 2.51215 2.07706 2.61439 2.27397H5.04361e-05V5.63841L0.229602 5.52335C0.453453 5.40689 0.666864 5.35494 0.912051 5.35494C1.24889 5.35494 1.55672 5.48779 1.77508 5.72895C1.98889 5.96526 2.10773 6.28681 2.10773 6.63449C2.10773 6.98298 1.99086 7.30458 1.7778 7.54003C1.55939 7.78124 1.25348 7.9141 0.915784 7.9141C0.59993 7.9141 0.37855 7.82633 0.228139 7.74986L0 7.63809V11H2.99995L2.8671 10.7724C2.73641 10.5485 2.67553 10.3219 2.67553 10.0593C2.67553 9.72418 2.80838 9.41937 3.04954 9.20102C3.28489 8.98796 3.60649 8.87069 3.95508 8.87069C4.30311 8.87069 4.62472 8.98826 4.86063 9.20177C5.10183 9.42018 5.23469 9.72463 5.23469 10.0591C5.23469 10.3234 5.17527 10.5504 5.04781 10.7735L4.91843 10.9999H7.8686V8.01533C8.1208 8.15 8.39272 8.21623 8.69848 8.21623C9.12087 8.21623 9.50991 8.04811 9.78632 7.74275C10.0501 7.45141 10.1975 7.05778 10.1975 6.63439C10.1975 6.211 10.0543 5.81757 9.79051 5.52623Z" fill="url(#paint0_linear)"/>
<defs>
<linearGradient id="paint0_linear" x1="5.09873" y1="0" x2="5.09873" y2="11" gradientUnits="userSpaceOnUse">
<stop stop-color="#F89D00"/>
<stop offset="0.359375" stop-color="#FE9700"/>
<stop offset="1" stop-color="#FF9400"/>
</linearGradient>
</defs>
</svg>
