<svg width="70" height="8" viewBox="0 0 70 8" fill="none" xmlns="http://www.w3.org/2000/svg">
<path d="M0.104154 6.95735V5.75443H5.2491C5.57035 5.75443 5.81754 5.67282 5.99066 5.5096C6.07741 5.42539 6.14538 5.3238 6.19013 5.21149C6.23488 5.09919 6.2554 4.97869 6.25035 4.8579C6.25035 4.56213 6.16379 4.34018 5.99066 4.19205C5.81754 4.04393 5.57035 3.97034 5.2491 3.97128H2.09604C1.79885 3.97689 1.50307 3.92895 1.22287 3.82976C0.976792 3.74166 0.751728 3.60334 0.56197 3.4236C0.381386 3.24911 0.239824 3.03833 0.14661 2.80516C0.0467959 2.55547 -0.00297156 2.2886 0.000137147 2.01973C-0.0024017 1.75686 0.0439058 1.49581 0.136704 1.24986C0.224828 1.01917 0.36363 0.811206 0.542865 0.641324C0.735215 0.46369 0.961786 0.32717 1.20871 0.240116C1.49979 0.137957 1.80671 0.0883614 2.11515 0.0936432H7.04286V1.29656H2.11515C1.83777 1.29656 1.6236 1.37039 1.47265 1.51804C1.32169 1.66569 1.24622 1.87019 1.24622 2.13153C1.24622 2.39617 1.32335 2.60066 1.4776 2.74501C1.63186 2.88936 1.84107 2.96178 2.10524 2.96225H5.2491C5.94821 2.96225 6.47867 3.12594 6.84049 3.45332C7.20231 3.7807 7.38322 4.27791 7.38322 4.94494C7.38571 5.21804 7.34094 5.48951 7.2509 5.74735C7.16643 5.9858 7.03124 6.20308 6.85464 6.38419C6.66597 6.57097 6.4387 6.71419 6.18879 6.8038C5.88739 6.91125 5.56903 6.96327 5.2491 6.95735H0.104154Z" fill="#7F9CFC"/>
<path d="M8.41211 6.95745V0.09375H9.61078V6.95745H8.41211ZM14.0672 6.95745L10.225 3.93601C10.1359 3.87663 10.0655 3.79321 10.0219 3.69543C9.99275 3.61199 9.97838 3.52411 9.97944 3.43574C9.97729 3.33838 9.99662 3.24174 10.036 3.1527C10.0957 3.04624 10.1799 2.95552 10.2816 2.88806L13.9158 0.09375H15.7556L11.263 3.44564L15.8985 6.95745H14.0672Z" fill="#7F9CFC"/>
<path d="M16.739 6.95745V0.09375H17.9377V6.95745H16.739Z" fill="#7F9CFC"/>
<path d="M20.3083 1.93495V6.9589H19.1655V0.72637C19.1549 0.537359 19.2135 0.350951 19.3304 0.20204C19.3857 0.13803 19.4548 0.0873929 19.5325 0.0539344C19.6102 0.0204759 19.6945 0.00506676 19.779 0.00886531C19.867 0.00904763 19.954 0.028363 20.0338 0.0654732C20.1293 0.112759 20.2155 0.176742 20.2885 0.254402L25.132 5.0597V0.0371692H26.2741V6.32489C26.2741 6.55132 26.2191 6.72751 26.1092 6.85346C26.0562 6.915 25.9902 6.96391 25.9159 6.9966C25.8415 7.02929 25.7608 7.04494 25.6797 7.04239C25.5759 7.03921 25.4739 7.01499 25.3797 6.9712C25.2856 6.92742 25.2013 6.86497 25.132 6.78766L20.3083 1.93495Z" fill="#7F9CFC"/>
<path d="M27.4352 6.95717V5.75425H32.5809C32.9021 5.75425 33.1491 5.67264 33.3217 5.50942C33.4086 5.42532 33.4767 5.32375 33.5215 5.21142C33.5662 5.09908 33.5867 4.97854 33.5814 4.85772C33.5814 4.56195 33.4949 4.34 33.3217 4.19187C33.1486 4.04375 32.9017 3.97016 32.5809 3.9711H29.4278C29.1304 3.97666 28.8344 3.92873 28.5539 3.82959C28.3081 3.74149 28.0832 3.60316 27.8938 3.42342C27.713 3.24896 27.5712 3.03819 27.4777 2.80498C27.3784 2.55591 27.3289 2.28979 27.3319 2.02167C27.3294 1.75881 27.3757 1.49776 27.4685 1.2518C27.5564 1.02098 27.6952 0.812963 27.8746 0.64327C28.0669 0.465476 28.2935 0.328935 28.5405 0.242062C28.8313 0.139957 29.138 0.0903611 29.4462 0.095589H34.3746V1.29851H29.4462C29.1698 1.29851 28.9559 1.37233 28.8044 1.51998C28.653 1.66764 28.5775 1.87142 28.578 2.13135C28.578 2.39599 28.6551 2.60049 28.8094 2.74484C28.9636 2.88989 29.1724 2.96207 29.437 2.96207H32.5809C33.2795 2.96207 33.8097 3.12576 34.1716 3.45314C34.5334 3.78052 34.7143 4.27773 34.7143 4.94476C34.717 5.21782 34.6725 5.48929 34.5827 5.74718C34.4982 5.98579 34.3628 6.20312 34.1857 6.38401C33.9974 6.57094 33.7704 6.71419 33.5206 6.80362C33.219 6.91029 32.9007 6.96159 32.5809 6.95505L27.4352 6.95717Z" fill="#7F9CFC"/>
<path d="M35.7339 6.95718V0.0934782H40.7578C41.0653 0.0900157 41.3719 0.128098 41.6692 0.206694C41.9229 0.272759 42.1616 0.386593 42.3726 0.542096C42.5662 0.688463 42.7216 0.879528 42.8254 1.09898C42.9362 1.34001 42.9911 1.60293 42.9861 1.86813C42.9895 2.06282 42.964 2.25693 42.9103 2.44412C42.8664 2.59528 42.7962 2.73755 42.703 2.86443C42.6176 2.97847 42.5139 3.07748 42.3959 3.15738C42.2842 3.23461 42.1613 3.29427 42.0315 3.33428C42.3419 3.43076 42.6142 3.62234 42.8099 3.88196C43.0108 4.1466 43.1113 4.48035 43.1113 4.88321C43.1138 5.17465 43.0595 5.46379 42.9514 5.73445C42.8525 5.98251 42.7011 6.20627 42.5077 6.3904C42.3072 6.57825 42.0692 6.7215 41.8093 6.81071C41.5167 6.91138 41.2088 6.96093 40.8994 6.95718H35.7339ZM37.8015 3.97112V2.9635H40.7663C41.106 2.9635 41.3576 2.90052 41.5213 2.77457C41.685 2.64862 41.7669 2.43421 41.7669 2.13136C41.7743 1.97824 41.7382 1.82616 41.6629 1.69265C41.591 1.58018 41.4876 1.49135 41.3657 1.43721C41.2189 1.37296 41.0625 1.33328 40.9029 1.31975C40.7037 1.29979 40.5037 1.29034 40.3036 1.29144H36.9368V5.76771H40.4111C40.6102 5.769 40.8091 5.75314 41.0055 5.7203C41.1703 5.69482 41.3298 5.64222 41.4775 5.56463C41.602 5.49947 41.7077 5.40348 41.7846 5.28583C41.8606 5.1576 41.8981 5.01024 41.8928 4.86128C41.8928 4.57824 41.8048 4.35959 41.6289 4.20533C41.4529 4.05108 41.1937 3.973 40.8512 3.97112H37.8015Z" fill="#7F9CFC"/>
<path d="M51.3116 6.95736L50.282 5.22941H47.0349L47.6009 4.25717H49.7067L48.1769 1.6893L45.0635 6.95736H43.6929L47.6391 0.386607C47.7002 0.276069 47.7839 0.179629 47.8847 0.103568C47.9837 0.0332808 48.1029 -0.00297073 48.2243 0.000258691C48.3445 -0.00345417 48.4625 0.0328882 48.5597 0.103568C48.6577 0.181249 48.7394 0.277416 48.8003 0.386607L52.7558 6.95736H51.3116Z" fill="#7F9CFC"/>
<path d="M55.7115 6.95716C55.2553 6.96163 54.8033 6.87001 54.3848 6.68827C53.9834 6.51366 53.6212 6.2603 53.3196 5.9432C53.0179 5.62609 52.7829 5.25169 52.6285 4.84215C52.459 4.39935 52.3743 3.92865 52.3787 3.45455C52.3725 2.98329 52.4573 2.51526 52.6285 2.07615C52.7848 1.67736 53.0229 1.31578 53.3276 1.01475C53.6305 0.718868 53.9901 0.487321 54.3848 0.334039C54.8078 0.170376 55.258 0.0887281 55.7115 0.0934559H59.4307V1.29637H55.7115C55.4184 1.29311 55.1276 1.34919 54.8567 1.46124C54.6031 1.56668 54.3735 1.72242 54.1817 1.91906C53.989 2.12019 53.8382 2.35758 53.738 2.61746C53.6283 2.90371 53.5738 3.20816 53.5774 3.51469C53.5748 3.82092 53.6293 4.12494 53.738 4.41122C53.8371 4.67608 53.9879 4.91856 54.1817 5.12448C54.3729 5.32416 54.6025 5.48303 54.8567 5.59149C55.1269 5.70651 55.4179 5.76433 55.7115 5.76132H59.4307V6.96423L55.7115 6.95716Z" fill="#7F9CFC"/>
<path opacity="0.25" d="M69.9999 6.95306H67.8842L63.2544 3.44549L67.9366 0.0928935L69.8584 0.0893555L65.3645 3.44125L69.9999 6.95306Z" fill="#7F9CFC"/>
<path opacity="0.5" d="M69.2104 0.0908203H67.3706L63.5425 2.89149C63.4409 2.95872 63.3567 3.04919 63.297 3.15543C63.2577 3.2445 63.2383 3.34112 63.2404 3.43847C63.2394 3.52684 63.2538 3.61471 63.2828 3.69816C63.3264 3.79594 63.3968 3.87936 63.4859 3.93874L67.3282 6.95948H69.1594L69.1538 6.95523L64.5211 3.44837L69.2033 0.0957735L69.2104 0.0908203Z" fill="#7F9CFC"/>
<path opacity="0.75" d="M68.5663 0.0908203H66.7266L62.8985 2.89149C62.7968 2.95872 62.7127 3.04919 62.6529 3.15543C62.6136 3.2445 62.5943 3.34112 62.5963 3.43847C62.5953 3.52684 62.6097 3.61471 62.6388 3.69816C62.6824 3.79594 62.7528 3.87936 62.8419 3.93874L66.6841 6.95948H68.5154L68.5097 6.95523L63.8799 3.44837L68.5621 0.0957735L68.5663 0.0908203Z" fill="#7F9CFC"/>
<path d="M60.4036 0.094259V6.95796H61.6022V0.094259H60.4036ZM67.9437 0.0878906H66.104L62.273 2.88856C62.1714 2.95579 62.0872 3.04626 62.0275 3.1525C61.9881 3.24156 61.9688 3.33819 61.9709 3.43554C61.9699 3.52414 61.9843 3.61224 62.0134 3.69593C62.0569 3.79372 62.1273 3.87714 62.2164 3.93652L66.0587 6.95725H67.89L67.8843 6.95301L63.2545 3.44544L67.9367 0.0921362L67.9437 0.0878906Z" fill="#7F9CFC"/>
</svg>
