<svg width="11" height="11" viewBox="0 0 11 11" fill="none" xmlns="http://www.w3.org/2000/svg">
<path fill-rule="evenodd" clip-rule="evenodd" d="M5.86657 4.47314H4.8399C4.6199 4.47314 4.3999 4.69314 4.3999 4.91314V8.35981C4.3999 8.57981 4.6199 8.79981 4.8399 8.79981H5.86657C6.08657 8.79981 6.30657 8.57981 6.30657 8.35981V4.91314C6.30657 4.69314 6.1599 4.47314 5.86657 4.47314Z" fill="url(#paint0_linear)"/>
<path fill-rule="evenodd" clip-rule="evenodd" d="M5.35351 1.68652C4.69351 1.68652 4.18018 2.19986 4.18018 2.85986C4.18018 3.51986 4.69351 4.03319 5.35351 4.03319C6.01351 4.03319 6.52684 3.51986 6.52684 2.85986C6.52684 2.19986 6.01351 1.68652 5.35351 1.68652Z" fill="url(#paint1_linear)"/>
<path fill-rule="evenodd" clip-rule="evenodd" d="M5.35333 0C2.42 0 0 2.34667 0 5.20667C0 8.06667 2.42 10.4133 5.35333 10.4133C8.28667 10.4133 10.7067 8.06667 10.7067 5.20667C10.7067 2.34667 8.36 0 5.35333 0ZM5.35333 9.24C3.08 9.24 1.24667 7.48 1.24667 5.28C1.24667 3.08 3.08 1.32 5.35333 1.32C7.62667 1.32 9.46 3.08 9.46 5.28C9.46 7.40667 7.62667 9.24 5.35333 9.24Z" fill="url(#paint2_linear)"/>
<defs>
<linearGradient id="paint0_linear" x1="5.35324" y1="4.47314" x2="5.35324" y2="8.79981" gradientUnits="userSpaceOnUse">
<stop stop-color="#F89D00"/>
<stop offset="0.359375" stop-color="#FE9700"/>
<stop offset="1" stop-color="#FF9400"/>
</linearGradient>
<linearGradient id="paint1_linear" x1="5.35351" y1="1.68652" x2="5.35351" y2="4.03319" gradientUnits="userSpaceOnUse">
<stop stop-color="#F89D00"/>
<stop offset="0.359375" stop-color="#FE9700"/>
<stop offset="1" stop-color="#FF9400"/>
</linearGradient>
<linearGradient id="paint2_linear" x1="5.35333" y1="0" x2="5.35333" y2="10.4133" gradientUnits="userSpaceOnUse">
<stop stop-color="#F89D00"/>
<stop offset="0.359375" stop-color="#FE9700"/>
<stop offset="1" stop-color="#FF9400"/>
</linearGradient>
</defs>
</svg>
