<svg width="60" height="20" viewBox="0 0 60 20" fill="none" xmlns="http://www.w3.org/2000/svg">
<path d="M26.0106 19.1409H21.1147L24.1745 0.336016H29.0709L26.0106 19.1409ZM16.996 0.336016L12.3285 13.2701L11.7762 10.4849L11.7767 10.4859L10.1293 2.02918C10.1293 2.02918 9.93008 0.336016 7.80684 0.336016H0.0905434L0 0.654426C0 0.654426 2.35966 1.14537 5.12123 2.80382L9.37475 19.1414H14.4759L22.2651 0.336016H16.996ZM55.5045 19.1409H60L56.0805 0.335513H52.1449C50.3275 0.335513 49.8848 1.73692 49.8848 1.73692L42.583 19.1409H47.6866L48.7072 16.3476H54.9311L55.5045 19.1409ZM50.1172 12.4889L52.6896 5.45171L54.1368 12.4889H50.1172ZM42.9658 4.85815L43.6645 0.819918C43.6645 0.819918 41.5086 0 39.2611 0C36.8315 0 31.0619 1.06187 31.0619 6.22535C31.0619 11.0835 37.8335 11.1439 37.8335 13.6957C37.8335 16.2475 31.7596 15.7902 29.755 14.1811L29.0272 18.4034C29.0272 18.4034 31.2133 19.4653 34.5533 19.4653C37.8944 19.4653 42.9346 17.7354 42.9346 13.0272C42.9346 8.13783 36.1021 7.6826 36.1021 5.55684C36.1026 3.43059 40.8707 3.70372 42.9658 4.85815Z" fill="#2566AF"/>
<path d="M11.7766 10.4867L10.1292 2.03006C10.1292 2.03006 9.93003 0.336914 7.8068 0.336914H0.090543L0 0.655322C0 0.655322 3.70873 1.42393 7.26606 4.30368C10.6675 7.05618 11.7766 10.4867 11.7766 10.4867Z" fill="#E6A540"/>
</svg>
