<svg width="50" height="55" viewBox="0 0 50 55" fill="none" xmlns="http://www.w3.org/2000/svg">
<path fill-rule="evenodd" clip-rule="evenodd" d="M37.9612 34.4817V4.89637C34.4757 1.84836 29.9041 0 24.8984 0C13.9669 0 5.10522 8.81508 5.10522 19.689C5.10522 30.563 13.9669 39.378 24.8984 39.378C29.9041 39.378 34.4757 37.5297 37.9612 34.4817Z" fill="#036CB5"/>
<path fill-rule="evenodd" clip-rule="evenodd" d="M35.2553 2.9072L34.6919 2.91329L32.8582 4.8404L29.8435 1.78467L25.6367 5.90082L22.6454 2.79575L14.228 10.5238L19.8908 16.5478L17.9615 18.4426L22.8525 23.7955L21.211 26.2712L28.3847 34.3072L33.1554 30.2995L36.8962 34.4349H38.0149C42.1102 30.8277 44.6919 25.5583 44.6919 19.6892C44.6919 12.592 40.9169 6.37182 35.2553 2.9072Z" fill="#111111"/>
<path fill-rule="evenodd" clip-rule="evenodd" d="M35.764 30.1273L39.0266 26.6921L42.1751 29.7598L39.1123 32.9883L35.764 30.1273ZM40.1886 20.7973L42.0172 18.6071L43.914 20.7769L42.1984 23.0999L40.1886 20.7973ZM32.5225 22.7813L35.9471 19.6327L39.0722 22.9631L35.842 26.3413L32.5225 22.7813ZM24.4501 26.4886L29.3543 22.3155L33.4674 26.6573L29.2157 30.9077L24.4501 26.4886ZM37.0649 14.1246L39.0605 11.8699L41.6784 14.273L39.4573 16.4464L37.0649 14.1246ZM29.8135 15.3414L33.0914 12.5639L36.1024 15.3773L33.1604 18.651L29.8135 15.3414ZM21.43 18.6536L25.8597 14.5777L29.6526 18.5723L25.6533 23.0523L21.43 18.6536ZM34.3427 7.37715L36.0379 5.3042L38.0685 7.14243L36.5565 9.22299L34.3427 7.37715ZM26.3769 8.7521L29.8744 5.50663L33.1614 8.62694L29.8146 11.9693L26.3769 8.7521ZM17.9675 10.9593L22.588 6.80177L26.9126 10.9865L22.4957 15.0703L17.9675 10.9593Z" fill="#036CB5"/>
<path fill-rule="evenodd" clip-rule="evenodd" d="M1.4311 44.5635L2.2845 49.0116L2.46831 50.2501L2.6565 49.038L3.38299 44.5635H4.80534L5.57121 49.0116L5.76815 50.2501L5.96509 49.0591L6.82725 44.5635H8.19708L6.38086 52.3319H5.09418L4.31517 47.7889L4.0876 46.2869L3.86002 47.7889L3.08102 52.3319H1.82935L0 44.5635H1.4311ZM12.1551 46.7032C12.4732 46.8824 12.7357 47.1653 12.9429 47.5517C13.1296 47.8926 13.2507 48.2878 13.3061 48.7376C13.3382 49.0011 13.3514 49.3805 13.3455 49.876H10.0807C10.0982 50.4522 10.2485 50.8562 10.5315 51.0881C10.7036 51.2322 10.9108 51.3042 11.1529 51.3042C11.4097 51.3042 11.6183 51.2164 11.7788 51.0407C11.8663 50.9458 11.9436 50.8141 12.0107 50.6454H13.2843C13.2522 50.9862 13.1048 51.3323 12.8422 51.6837C12.4338 52.2423 11.8619 52.5217 11.1267 52.5217C10.5198 52.5217 9.98442 52.2862 9.52052 51.8154C9.05661 51.3446 8.82466 50.5787 8.82466 49.5176C8.82466 48.5232 9.034 47.7608 9.45268 47.2303C9.87136 46.6997 10.4148 46.4344 11.0829 46.4344C11.4797 46.4344 11.8371 46.524 12.1551 46.7032C12.1551 46.7032 11.8371 46.524 12.1551 46.7032ZM10.4111 47.9997C10.2521 48.2176 10.1522 48.5127 10.1113 48.8851H12.0501C12.0297 48.4881 11.9297 48.1868 11.7503 47.9813C11.5709 47.7757 11.3484 47.673 11.0829 47.673C10.7941 47.673 10.5701 47.7819 10.4111 47.9997C10.4111 47.9997 10.5701 47.7819 10.4111 47.9997ZM18.6844 47.2777C19.0388 47.8223 19.2161 48.525 19.2161 49.3858C19.2161 50.2783 19.041 51.0179 18.6909 51.6046C18.3408 52.1914 17.8521 52.4848 17.2248 52.4848C16.8309 52.4848 16.5144 52.3899 16.2751 52.2002C16.1322 52.0877 15.9775 51.891 15.8112 51.6099V52.3319H14.5902V44.574H15.8331V47.3357C15.9907 47.0686 16.1642 46.8648 16.3539 46.7243C16.5786 46.5486 16.8645 46.4608 17.2117 46.4608C17.839 46.4608 18.3299 46.7331 18.6844 47.2777C18.6844 47.2777 18.3299 46.7331 18.6844 47.2777ZM17.6406 50.7772C17.8185 50.4645 17.9075 50.0534 17.9075 49.5439C17.9075 49.1364 17.8638 48.7991 17.7762 48.532C17.6099 48.0261 17.3036 47.7731 16.8572 47.7731C16.405 47.7731 16.0942 48.0208 15.925 48.5162C15.8375 48.7797 15.7937 49.1205 15.7937 49.5387C15.7937 50.0306 15.8842 50.4381 16.0651 50.7614C16.2459 51.0846 16.5217 51.2462 16.8922 51.2462C17.2131 51.2462 17.4626 51.0899 17.6406 50.7772C17.6406 50.7772 17.4626 51.0899 17.6406 50.7772ZM24.9335 44.5635H26.8722V52.3319H25.6162V47.0774C25.6162 46.9263 25.6177 46.7146 25.6206 46.4423C25.6235 46.17 25.625 45.9601 25.625 45.8125L24.4039 52.3319H23.0954L21.8831 45.8125C21.8831 45.9601 21.8846 46.17 21.8875 46.4423C21.8904 46.7146 21.8919 46.9263 21.8919 47.0774V52.3319H20.6358V44.5635H22.5965L23.7693 50.6718L24.9335 44.5635ZM32.4496 51.6336C32.047 52.2327 31.4357 52.5322 30.6159 52.5322C29.796 52.5322 29.1848 52.2327 28.7821 51.6336C28.3795 51.0345 28.1782 50.3134 28.1782 49.4701C28.1782 48.6409 28.3795 47.9224 28.7821 47.3146C29.1848 46.7067 29.796 46.4028 30.6159 46.4028C31.4357 46.4028 32.047 46.7067 32.4496 47.3146C32.8522 47.9224 33.0535 48.6409 33.0535 49.4701C33.0535 50.3134 32.8522 51.0345 32.4496 51.6336C32.4496 51.6336 32.8522 51.0345 32.4496 51.6336ZM31.4518 50.8035C31.6472 50.4908 31.745 50.0464 31.745 49.4701C31.745 48.8939 31.6472 48.4503 31.4518 48.1394C31.2563 47.8284 30.9762 47.673 30.6115 47.673C30.2468 47.673 29.966 47.8284 29.769 48.1394C29.5721 48.4503 29.4736 48.8939 29.4736 49.4701C29.4736 50.0464 29.5721 50.4908 29.769 50.8035C29.966 51.1162 30.2468 51.2726 30.6115 51.2726C30.9762 51.2726 31.2563 51.1162 31.4518 50.8035C31.4518 50.8035 31.2563 51.1162 31.4518 50.8035ZM38.2479 46.9167C38.5616 47.2276 38.7184 47.7432 38.7184 48.4635V52.3319H37.4405V48.8377C37.4405 48.5355 37.4069 48.3036 37.3398 48.142C37.2173 47.8469 36.9839 47.6993 36.6396 47.6993C36.2165 47.6993 35.9262 47.9154 35.7687 48.3476C35.687 48.5759 35.6461 48.8676 35.6461 49.2224V52.3319H34.4032V46.5978H35.6068V47.4358C35.7672 47.1407 35.9189 46.9281 36.0619 46.7981C36.3187 46.5662 36.644 46.4503 37.0378 46.4503C37.5309 46.4503 37.9343 46.6057 38.2479 46.9167C38.2479 46.9167 37.9343 46.6057 38.2479 46.9167ZM43.2717 46.7032C43.5897 46.8824 43.8523 47.1653 44.0594 47.5517C44.2461 47.8926 44.3672 48.2878 44.4227 48.7376C44.4548 49.0011 44.4679 49.3805 44.462 49.876H41.1972C41.2147 50.4522 41.365 50.8562 41.648 51.0881C41.8201 51.2322 42.0273 51.3042 42.2694 51.3042C42.5262 51.3042 42.7348 51.2164 42.8953 51.0407C42.9828 50.9458 43.0601 50.8141 43.1272 50.6454H44.4008C44.3687 50.9862 44.2213 51.3323 43.9588 51.6837C43.5503 52.2423 42.9784 52.5217 42.2432 52.5217C41.6363 52.5217 41.1009 52.2862 40.637 51.8154C40.1731 51.3446 39.9412 50.5787 39.9412 49.5176C39.9412 48.5232 40.1505 47.7608 40.5692 47.2303C40.9879 46.6997 41.5313 46.4344 42.1994 46.4344C42.5962 46.4344 42.9536 46.524 43.2717 46.7032C43.2717 46.7032 42.9536 46.524 43.2717 46.7032ZM41.5276 47.9997C41.3686 48.2176 41.2687 48.5127 41.2279 48.8851H43.1666C43.1462 48.4881 43.0463 48.1868 42.8668 47.9813C42.6874 47.7757 42.4649 47.673 42.1994 47.673C41.9106 47.673 41.6867 47.7819 41.5276 47.9997C41.5276 47.9997 41.6867 47.7819 41.5276 47.9997ZM45.943 53.4334L46.1006 53.444C46.2231 53.451 46.3398 53.4457 46.4507 53.4282C46.5616 53.4106 46.6549 53.3702 46.7308 53.3069C46.8037 53.2472 46.8716 53.1225 46.9343 52.9327C46.997 52.743 47.0226 52.6271 47.0109 52.5849L45.2603 46.5873H46.6476L47.6892 50.8246L48.6739 46.5873H50L48.3632 52.2371C48.0481 53.3263 47.7987 54.0017 47.6148 54.2635C47.431 54.5253 47.0634 54.6561 46.512 54.6561C46.4011 54.6561 46.3121 54.6553 46.245 54.6535C46.1779 54.6517 46.0773 54.6456 45.943 54.6351C45.943 54.6351 46.0773 54.6456 45.943 54.6351V53.4334Z" fill="#036CB5"/>
</svg>
