<svg width="70" height="14" viewBox="0 0 70 14" fill="none" xmlns="http://www.w3.org/2000/svg">
<path d="M3.3714 7.04658L1.42217 11.4246H0L2.14125 6.74279C1.13438 6.23148 0.463306 5.30487 0.463306 3.59517C0.463305 1.19839 1.98123 0 3.78694 0H5.62441V11.4246H4.39402V7.04658H3.3714ZM4.39402 1.03862H3.73894C2.74832 1.03862 1.78971 1.6937 1.78971 3.59517C1.78971 5.43264 2.66831 6.02396 3.73894 6.02396H4.39402V1.03862Z" fill="#FF0000"/>
<path d="M11.5541 3.37153V11.4247H10.3237V7.8138H8.47027V11.4247H7.22388V3.37153H8.47027V6.79068H10.3237V3.37153H11.5541ZM17.9614 13.0067H16.843V11.4247H13.3916V13.0067H12.2732V10.4021H12.7685C13.5034 8.69216 13.5834 6.19986 13.5834 4.05861V3.37153H17.3223V10.4021H17.9614V13.0067ZM16.0919 4.37815H14.7018V4.52216C14.7018 6.21586 14.622 8.69216 13.9509 10.4021H16.0919V4.37815ZM21.3968 11.5365C19.7351 11.5365 18.7125 10.2106 18.7125 7.73404C18.7125 5.14524 19.4316 3.25977 21.1413 3.25977C22.4834 3.25977 23.3623 4.26638 23.3623 6.99846V7.68579H20.0066C20.0066 9.5075 20.5179 10.4661 21.5086 10.4661C22.2116 10.4661 22.771 10.1466 23.0905 9.92304L23.3783 10.8812C22.867 11.281 22.1956 11.5365 21.3968 11.5365ZM20.0226 6.66317H22.0839C22.0839 5.289 21.8601 4.28239 21.1413 4.28239C20.3742 4.28239 20.1026 5.225 20.0226 6.66317ZM25.8868 7.41401V11.4247H24.6404V3.37153H25.8868V7.09447L27.82 3.37153H29.0824L27.0852 7.15847L29.37 11.4247H28.0118L25.8868 7.41401ZM29.5297 7.39825C29.5297 4.87346 30.5046 3.25977 32.3901 3.25977C33.1089 3.25977 33.5245 3.45154 33.876 3.67507L33.7002 4.8577C33.3647 4.56992 32.8854 4.29839 32.3741 4.29839C31.4792 4.29839 30.8401 5.30501 30.8401 7.33424C30.8401 9.34748 31.3195 10.4981 32.3261 10.4981C32.9331 10.4981 33.3967 10.2583 33.6842 10.0028L33.9718 10.9294C33.5405 11.2967 33.0292 11.5365 32.2941 11.5365C30.5684 11.5365 29.5297 10.1466 29.5297 7.39825Z" fill="white"/>
<path d="M42.4472 11.4246H37.5578L37.4458 13.3261H36.8228V10.7698H37.1583C37.7176 10.306 37.9891 9.02781 38.1489 7.39812C38.3087 5.70442 38.3567 3.17962 38.4047 0H42.3992V10.7698H43.1825V13.3261H42.5589L42.4472 11.4246ZM41.6003 0.655078H39.1238C39.0758 3.54717 38.9958 5.75218 38.868 7.39812C38.7242 9.10757 38.4685 10.242 38.0371 10.7698H41.6003V0.655078Z" fill="white"/>
<path d="M46.4912 10.9291C47.5616 10.9291 48.1209 10.0665 48.1209 10.0665L48.3607 10.6731C48.3607 10.6731 47.7536 11.5839 46.4755 11.5839C44.766 11.5839 43.9827 10.034 43.9827 7.39791C43.9827 4.76136 44.9733 3.21143 46.3317 3.21143C47.7216 3.21143 48.6162 4.66559 48.3607 7.52593H44.7177C44.7498 9.73069 45.3248 10.9291 46.4912 10.9291ZM44.7335 6.93412H47.6581C47.7856 4.79336 47.1465 3.83475 46.3317 3.83475C45.4848 3.83475 44.7975 4.92113 44.7335 6.93412Z" fill="white"/>
<path d="M53.2831 7.54256H50.5348V11.4253H49.7839V3.37207H50.5348V6.93499H53.2831V3.37207H54.0339V11.4253H53.2831V7.54256Z" fill="white"/>
<path d="M55.8093 3.37207H56.5597V6.36017H57.1515C58.6852 6.36017 59.6758 7.19102 59.6758 8.86896C59.6758 10.5784 58.6212 11.4253 57.1032 11.4253H55.8093V3.37207ZM56.5597 6.95124V10.834H57.0392C58.1736 10.834 58.9407 10.2751 58.9407 8.88472C58.9407 7.52681 58.2696 6.95124 57.119 6.95124H56.5597Z" fill="white"/>
<path d="M61.7055 3.99539V11.4253H60.9709V3.37207H64.3741V3.99539H61.7055Z" fill="white"/>
<path d="M69.2811 5.81686C69.2811 5.40131 69.3126 5.04977 69.3451 4.71423H69.2969C69.1851 5.06577 69.0413 5.40131 68.8656 5.75285L66.2453 11.4253H65.6062V3.37207H66.3093V8.96448C66.3093 9.39578 66.2768 9.74732 66.2453 10.0989H66.293C66.4048 9.73157 66.5643 9.38003 66.7243 9.02849L69.3451 3.37207H69.9999V11.4253H69.2811V5.81686Z" fill="white"/>
</svg>
